<svg data-v-423bf9ae="" xmlns="http://www.w3.org/2000/svg" viewBox="0 0 245.87142399379184 189" class="iconAboveSlogan"><!----><!----><!----><g data-v-423bf9ae="" id="76c2eb39-1394-4471-b4c7-0e36ac6b9ca6" fill="white" transform="matrix(4.285714285714286,0,0,4.285714285714286,-1.6714310092585407,92.88571323667253)"><path d="M8.51 5.97L8.51 5.97L8.51 5.97Q8.51 6.60 8.29 7.18L8.29 7.18L8.29 7.18Q8.07 7.76 7.58 8.20L7.58 8.20L7.58 8.20Q7.09 8.65 6.30 8.91L6.30 8.91L6.30 8.91Q5.52 9.17 4.38 9.17L4.38 9.17L3.90 9.17L3.90 11.42L3.90 11.42Q3.90 11.69 3.96 11.86L3.96 11.86L3.96 11.86Q4.03 12.02 4.13 12.11L4.13 12.11L4.13 12.11Q4.23 12.20 4.37 12.22L4.37 12.22L4.37 12.22Q4.50 12.25 4.65 12.25L4.65 12.25L5.50 12.25L5.50 13.00L0.39 13.00L0.39 12.25L0.98 12.25L0.98 12.25Q1.13 12.25 1.26 12.22L1.26 12.22L1.26 12.22Q1.39 12.19 1.49 12.09L1.49 12.09L1.49 12.09Q1.59 12.00 1.64 11.82L1.64 11.82L1.64 11.82Q1.70 11.64 1.70 11.34L1.70 11.34L1.70 4.59L1.70 4.59Q1.70 4.31 1.64 4.15L1.64 4.15L1.64 4.15Q1.59 3.98 1.49 3.89L1.49 3.89L1.49 3.89Q1.39 3.80 1.26 3.77L1.26 3.77L1.26 3.77Q1.13 3.74 0.98 3.74L0.98 3.74L0.39 3.74L0.39 3.00L4.69 3.00L4.69 3.00Q5.66 3.00 6.38 3.21L6.38 3.21L6.38 3.21Q7.10 3.41 7.57 3.80L7.57 3.80L7.57 3.80Q8.05 4.18 8.28 4.73L8.28 4.73L8.28 4.73Q8.51 5.28 8.51 5.97ZM3.90 3.83L3.90 8.36L4.25 8.36L4.25 8.36Q4.76 8.36 5.13 8.23L5.13 8.23L5.13 8.23Q5.49 8.10 5.72 7.82L5.72 7.82L5.72 7.82Q5.95 7.54 6.05 7.10L6.05 7.10L6.05 7.10Q6.16 6.65 6.16 6.02L6.16 6.02L6.16 6.02Q6.16 5.46 6.07 5.05L6.07 5.05L6.07 5.05Q5.97 4.63 5.77 4.36L5.77 4.36L5.77 4.36Q5.57 4.09 5.25 3.96L5.25 3.96L5.25 3.96Q4.92 3.83 4.45 3.83L4.45 3.83L3.90 3.83ZM13.89 5.49L17.04 5.49L17.04 6.23L17.04 6.23Q16.83 6.23 16.67 6.28L16.67 6.28L16.67 6.28Q16.51 6.33 16.38 6.45L16.38 6.45L16.38 6.45Q16.25 6.57 16.14 6.76L16.14 6.76L16.14 6.76Q16.03 6.96 15.92 7.25L15.92 7.25L15.92 7.25Q15.67 7.95 15.41 8.67L15.41 8.67L15.41 8.67Q15.14 9.40 14.87 10.13L14.87 10.13L14.87 10.13Q14.60 10.86 14.33 11.58L14.33 11.58L14.33 11.58Q14.06 12.30 13.81 13.00L13.81 13.00L13.81 13.00Q13.56 13.67 13.34 14.18L13.34 14.18L13.34 14.18Q13.13 14.70 12.88 15.07L12.88 15.07L12.88 15.07Q12.64 15.45 12.35 15.70L12.35 15.70L12.35 15.70Q12.05 15.94 11.66 16.09L11.66 16.09L11.66 16.09Q11.27 16.24 10.76 16.30L10.76 16.30L10.76 16.30Q10.24 16.36 9.55 16.36L9.55 16.36L9.31 16.36L9.31 15.54L9.31 15.54Q10.04 15.54 10.55 15.37L10.55 15.37L10.55 15.37Q11.07 15.19 11.42 14.86L11.42 14.86L11.42 14.86Q11.78 14.53 12.01 14.08L12.01 14.08L12.01 14.08Q12.24 13.62 12.41 13.06L12.41 13.06L9.88 6.90L9.88 6.90Q9.80 6.71 9.70 6.59L9.70 6.59L9.70 6.59Q9.60 6.47 9.48 6.41L9.48 6.41L9.48 6.41Q9.37 6.35 9.23 6.33L9.23 6.33L9.23 6.33Q9.09 6.32 8.93 6.32L8.93 6.32L8.93 5.49L12.93 5.49L12.93 6.23L12.93 6.23Q12.52 6.23 12.28 6.34L12.28 6.34L12.28 6.34Q12.04 6.45 12.04 6.75L12.04 6.75L12.04 6.75Q12.04 6.87 12.09 7.03L12.09 7.03L12.09 7.03Q12.14 7.19 12.18 7.29L12.18 7.29L12.18 7.29Q12.30 7.59 12.44 7.93L12.44 7.93L12.44 7.93Q12.57 8.28 12.70 8.62L12.70 8.62L12.70 8.62Q12.82 8.97 12.94 9.29L12.94 9.29L12.94 9.29Q13.06 9.61 13.15 9.86L13.15 9.86L13.15 9.86Q13.25 10.12 13.32 10.34L13.32 10.34L13.32 10.34Q13.38 10.55 13.43 10.73L13.43 10.73L13.43 10.73Q13.47 10.90 13.50 11.05L13.50 11.05L13.50 11.05Q13.53 11.20 13.54 11.34L13.54 11.34L13.54 11.34Q13.56 11.20 13.60 11.02L13.60 11.02L13.60 11.02Q13.64 10.85 13.69 10.69L13.69 10.69L13.69 10.69Q13.73 10.53 13.78 10.40L13.78 10.40L13.78 10.40Q13.83 10.27 13.85 10.22L13.85 10.22L14.77 7.48L14.77 7.48Q14.80 7.41 14.82 7.32L14.82 7.32L14.82 7.32Q14.85 7.23 14.87 7.13L14.87 7.13L14.87 7.13Q14.89 7.03 14.90 6.95L14.90 6.95L14.90 6.95Q14.91 6.86 14.91 6.79L14.91 6.79L14.91 6.79Q14.91 6.47 14.64 6.35L14.64 6.35L14.64 6.35Q14.38 6.23 13.89 6.23L13.89 6.23L13.89 5.49ZM26.36 3.86L26.36 11.34L26.36 11.34Q26.36 11.64 26.41 11.82L26.41 11.82L26.41 11.82Q26.47 12.00 26.57 12.09L26.57 12.09L26.57 12.09Q26.67 12.19 26.80 12.22L26.80 12.22L26.80 12.22Q26.93 12.25 27.08 12.25L27.08 12.25L27.67 12.25L27.67 13.00L22.83 13.00L22.83 12.25L23.42 12.25L23.42 12.25Q23.58 12.25 23.71 12.22L23.71 12.22L23.71 12.22Q23.84 12.19 23.93 12.09L23.93 12.09L23.93 12.09Q24.03 12.00 24.08 11.82L24.08 11.82L24.08 11.82Q24.14 11.64 24.14 11.34L24.14 11.34L24.14 3.86L23.02 3.86L23.02 3.86Q22.70 3.86 22.49 3.92L22.49 3.92L22.49 3.92Q22.28 3.99 22.15 4.12L22.15 4.12L22.15 4.12Q22.01 4.25 21.95 4.43L21.95 4.43L21.95 4.43Q21.88 4.61 21.85 4.85L21.85 4.85L21.76 5.71L20.82 5.71L20.89 3.00L29.61 3.00L29.68 5.71L28.75 5.71L28.64 4.85L28.64 4.85Q28.62 4.61 28.55 4.43L28.55 4.43L28.55 4.43Q28.49 4.25 28.35 4.12L28.35 4.12L28.35 4.12Q28.22 3.99 28.01 3.92L28.01 3.92L28.01 3.92Q27.79 3.86 27.48 3.86L27.48 3.86L26.36 3.86ZM37.32 9.21L37.32 9.21L37.32 9.21Q37.32 11.19 36.40 12.16L36.40 12.16L36.40 12.16Q35.47 13.13 33.67 13.13L33.67 13.13L33.67 13.13Q32.83 13.13 32.16 12.89L32.16 12.89L32.16 12.89Q31.49 12.65 31.02 12.16L31.02 12.16L31.02 12.16Q30.56 11.68 30.31 10.94L30.31 10.94L30.31 10.94Q30.06 10.20 30.06 9.21L30.06 9.21L30.06 9.21Q30.06 7.24 30.98 6.28L30.98 6.28L30.98 6.28Q31.91 5.31 33.71 5.31L33.71 5.31L33.71 5.31Q34.56 5.31 35.22 5.55L35.22 5.55L35.22 5.55Q35.89 5.79 36.36 6.28L36.36 6.28L36.36 6.28Q36.83 6.76 37.07 7.50L37.07 7.50L37.07 7.50Q37.32 8.23 37.32 9.21ZM32.23 9.21L32.23 9.21L32.23 9.21Q32.23 9.96 32.31 10.53L32.31 10.53L32.31 10.53Q32.39 11.09 32.56 11.48L32.56 11.48L32.56 11.48Q32.74 11.86 33.02 12.06L33.02 12.06L33.02 12.06Q33.30 12.25 33.70 12.25L33.70 12.25L33.70 12.25Q34.10 12.25 34.38 12.06L34.38 12.06L34.38 12.06Q34.66 11.86 34.83 11.48L34.83 11.48L34.83 11.48Q35.01 11.09 35.08 10.53L35.08 10.53L35.08 10.53Q35.16 9.96 35.16 9.21L35.16 9.21L35.16 9.21Q35.16 8.46 35.08 7.90L35.08 7.90L35.08 7.90Q35 7.33 34.83 6.96L34.83 6.96L34.83 6.96Q34.65 6.58 34.37 6.40L34.37 6.40L34.37 6.40Q34.09 6.21 33.69 6.21L33.69 6.21L33.69 6.21Q33.28 6.21 33.00 6.40L33.00 6.40L33.00 6.40Q32.72 6.58 32.55 6.96L32.55 6.96L32.55 6.96Q32.38 7.33 32.31 7.90L32.31 7.90L32.31 7.90Q32.23 8.46 32.23 9.21ZM45.90 9.21L45.90 9.21L45.90 9.21Q45.90 11.19 44.98 12.16L44.98 12.16L44.98 12.16Q44.05 13.13 42.25 13.13L42.25 13.13L42.25 13.13Q41.41 13.13 40.74 12.89L40.74 12.89L40.74 12.89Q40.07 12.65 39.60 12.16L39.60 12.16L39.60 12.16Q39.14 11.68 38.89 10.94L38.89 10.94L38.89 10.94Q38.64 10.20 38.64 9.21L38.64 9.21L38.64 9.21Q38.64 7.24 39.56 6.28L39.56 6.28L39.56 6.28Q40.49 5.31 42.29 5.31L42.29 5.31L42.29 5.31Q43.13 5.31 43.80 5.55L43.80 5.55L43.80 5.55Q44.47 5.79 44.94 6.28L44.94 6.28L44.94 6.28Q45.40 6.76 45.65 7.50L45.65 7.50L45.65 7.50Q45.90 8.23 45.90 9.21ZM40.81 9.21L40.81 9.21L40.81 9.21Q40.81 9.96 40.89 10.53L40.89 10.53L40.89 10.53Q40.97 11.09 41.14 11.48L41.14 11.48L41.14 11.48Q41.32 11.86 41.60 12.06L41.60 12.06L41.60 12.06Q41.88 12.25 42.28 12.25L42.28 12.25L42.28 12.25Q42.68 12.25 42.96 12.06L42.96 12.06L42.96 12.06Q43.24 11.86 43.41 11.48L43.41 11.48L43.41 11.48Q43.59 11.09 43.66 10.53L43.66 10.53L43.66 10.53Q43.74 9.96 43.74 9.21L43.74 9.21L43.74 9.21Q43.74 8.46 43.66 7.90L43.66 7.90L43.66 7.90Q43.58 7.33 43.40 6.96L43.40 6.96L43.40 6.96Q43.23 6.58 42.95 6.40L42.95 6.40L42.95 6.40Q42.67 6.21 42.27 6.21L42.27 6.21L42.27 6.21Q41.86 6.21 41.58 6.40L41.58 6.40L41.58 6.40Q41.30 6.58 41.13 6.96L41.13 6.96L41.13 6.96Q40.96 7.33 40.89 7.90L40.89 7.90L40.89 7.90Q40.81 8.46 40.81 9.21ZM46.80 12.25L46.96 12.25L46.96 12.25Q47.12 12.25 47.29 12.22L47.29 12.22L47.29 12.22Q47.47 12.19 47.62 12.09L47.62 12.09L47.62 12.09Q47.76 12.00 47.86 11.82L47.86 11.82L47.86 11.82Q47.96 11.64 47.96 11.34L47.96 11.34L47.96 3.95L47.96 3.95Q47.96 3.67 47.86 3.50L47.86 3.50L47.86 3.50Q47.76 3.34 47.61 3.24L47.61 3.24L47.61 3.24Q47.46 3.15 47.29 3.12L47.29 3.12L47.29 3.12Q47.11 3.10 46.96 3.10L46.96 3.10L46.80 3.10L46.80 2.36L50.09 2.36L50.09 11.34L50.09 11.34Q50.09 11.64 50.19 11.82L50.19 11.82L50.19 11.82Q50.29 12.00 50.43 12.09L50.43 12.09L50.43 12.09Q50.58 12.19 50.76 12.22L50.76 12.22L50.76 12.22Q50.93 12.25 51.08 12.25L51.08 12.25L51.25 12.25L51.25 13.00L46.80 13.00L46.80 12.25ZM54.72 13.13L54.72 13.13L54.72 13.13Q53.96 13.13 53.43 13.01L53.43 13.01L53.43 13.01Q52.89 12.89 52.55 12.67L52.55 12.67L52.55 12.67Q52.21 12.45 52.06 12.15L52.06 12.15L52.06 12.15Q51.91 11.85 51.91 11.50L51.91 11.50L51.91 11.50Q51.91 11.16 52.04 10.95L52.04 10.95L52.04 10.95Q52.17 10.74 52.37 10.62L52.37 10.62L52.37 10.62Q52.58 10.51 52.80 10.47L52.80 10.47L52.80 10.47Q53.03 10.43 53.21 10.43L53.21 10.43L53.21 10.43Q53.21 10.87 53.32 11.22L53.32 11.22L53.32 11.22Q53.43 11.57 53.63 11.81L53.63 11.81L53.63 11.81Q53.83 12.05 54.10 12.18L54.10 12.18L54.10 12.18Q54.38 12.31 54.72 12.31L54.72 12.31L54.72 12.31Q55.08 12.31 55.35 12.24L55.35 12.24L55.35 12.24Q55.61 12.16 55.78 12.03L55.78 12.03L55.78 12.03Q55.95 11.89 56.03 11.72L56.03 11.72L56.03 11.72Q56.11 11.55 56.11 11.35L56.11 11.35L56.11 11.35Q56.11 11.12 56.02 10.94L56.02 10.94L56.02 10.94Q55.94 10.76 55.74 10.60L55.74 10.60L55.74 10.60Q55.54 10.44 55.21 10.28L55.21 10.28L55.21 10.28Q54.88 10.13 54.39 9.96L54.39 9.96L54.39 9.96Q53.82 9.76 53.39 9.54L53.39 9.54L53.39 9.54Q52.95 9.32 52.65 9.03L52.65 9.03L52.65 9.03Q52.36 8.75 52.20 8.38L52.20 8.38L52.20 8.38Q52.05 8.02 52.05 7.55L52.05 7.55L52.05 7.55Q52.05 6.99 52.26 6.57L52.26 6.57L52.26 6.57Q52.48 6.15 52.88 5.88L52.88 5.88L52.88 5.88Q53.27 5.60 53.83 5.46L53.83 5.46L53.83 5.46Q54.38 5.33 55.06 5.33L55.06 5.33L55.06 5.33Q55.72 5.33 56.18 5.44L56.18 5.44L56.18 5.44Q56.65 5.55 56.94 5.74L56.94 5.74L56.94 5.74Q57.24 5.92 57.37 6.15L57.37 6.15L57.37 6.15Q57.51 6.38 57.51 6.62L57.51 6.62L57.51 6.62Q57.51 7.10 57.18 7.34L57.18 7.34L57.18 7.34Q56.85 7.59 56.08 7.59L56.08 7.59L56.08 7.59Q56.08 6.89 55.77 6.50L55.77 6.50L55.77 6.50Q55.46 6.12 54.85 6.12L54.85 6.12L54.85 6.12Q54.63 6.12 54.42 6.17L54.42 6.17L54.42 6.17Q54.21 6.23 54.06 6.34L54.06 6.34L54.06 6.34Q53.90 6.45 53.81 6.61L53.81 6.61L53.81 6.61Q53.72 6.77 53.72 6.99L53.72 6.99L53.72 6.99Q53.72 7.21 53.80 7.39L53.80 7.39L53.80 7.39Q53.89 7.57 54.10 7.73L54.10 7.73L54.10 7.73Q54.32 7.89 54.69 8.05L54.69 8.05L54.69 8.05Q55.06 8.22 55.63 8.42L55.63 8.42L55.63 8.42Q56.10 8.58 56.49 8.79L56.49 8.79L56.49 8.79Q56.88 9.00 57.17 9.27L57.17 9.27L57.17 9.27Q57.45 9.54 57.61 9.88L57.61 9.88L57.61 9.88Q57.76 10.23 57.76 10.67L57.76 10.67L57.76 10.67Q57.76 11.25 57.56 11.71L57.56 11.71L57.56 11.71Q57.36 12.17 56.97 12.48L56.97 12.48L56.97 12.48Q56.58 12.80 56.01 12.96L56.01 12.96L56.01 12.96Q55.45 13.13 54.72 13.13Z"></path></g><!----><g data-v-423bf9ae="" id="205422da-c5ab-4f5a-96cc-beeaa780617f" transform="matrix(1.1249798301498348,0,0,1.1249798301498348,66.75087926586824,-10.249787216823322)" stroke="none" fill="white"><path d="M86.674 33.332H66.66V13.327c-11.106-4.604-23.04-4.265-33.334 0v20.005h-20c-4.603 11.107-4.264 23.039 0 33.336h20v20.007c11.107 4.603 23.041 4.264 33.334 0V66.668h20.014c4.602-11.11 4.264-23.043 0-33.336zM33.326 56.668v3.333H18.053a36.49 36.49 0 0 1 0-20.002h31.94v-6.667h-10V18.055a36.695 36.695 0 0 1 10.02-1.389c3.391 0 6.732.466 9.98 1.387v25.28a3.334 3.334 0 0 1-3.333 3.333H43.327c-5.521.001-10.001 4.478-10.001 10.002zm48.62 3.333H49.994v6.667h10v15.279a36.714 36.714 0 0 1-10.019 1.387 36.5 36.5 0 0 1-9.98-1.387V56.668a3.332 3.332 0 0 1 3.333-3.334H56.66c5.521 0 10-4.476 10-10v-3.335h15.286a36.49 36.49 0 0 1 0 20.002z"></path><circle cx="48.326" cy="25" r="3.333"></circle><circle cx="51.659" cy="75" r="3.333"></circle></g><!----><g data-v-423bf9ae="" id="909d684e-2c53-4323-8236-952139d99861" fill="white" transform="matrix(1.0480453037438155,0,0,1.0480453037438155,30.784763317222513,198.59889221312758)"><path d="M0.28 3.72L0.28 3.72L0.28 3.72Q0.28 3.51 0.41 3.51L0.41 3.51L0.41 3.51Q0.45 3.51 0.59 3.52L0.59 3.52L0.59 3.52Q0.73 3.53 0.97 3.53L0.97 3.53L0.97 3.53Q1.25 3.53 2.08 3.52L2.08 3.52L2.08 3.52Q2.91 3.51 3.01 3.51L3.01 3.51L3.01 3.51Q3.33 3.51 3.82 3.49L3.82 3.49L3.82 3.49Q4.31 3.47 4.55 3.47L4.55 3.47L4.55 3.47Q5.82 3.47 6.68 4.08L6.68 4.08L6.68 4.08Q7.53 4.69 7.53 5.81L7.53 5.81L7.53 5.81Q7.53 6.22 7.38 6.57L7.38 6.57L7.38 6.57Q7.24 6.93 7.04 7.15L7.04 7.15L7.04 7.15Q6.83 7.38 6.63 7.54L6.63 7.54L6.63 7.54Q6.43 7.70 6.28 7.79L6.28 7.79L6.28 7.79Q6.13 7.88 6.13 7.90L6.13 7.90L6.13 7.90Q6.13 7.94 6.37 8.00L6.37 8.00L6.37 8.00Q6.61 8.06 6.94 8.21L6.94 8.21L6.94 8.21Q7.28 8.36 7.61 8.61L7.61 8.61L7.61 8.61Q7.94 8.86 8.18 9.36L8.18 9.36L8.18 9.36Q8.41 9.86 8.41 10.53L8.41 10.53L8.41 10.53Q8.41 11.13 8.06 11.82L8.06 11.82L8.06 11.82Q7.71 12.50 7.24 12.82L7.24 12.82L7.24 12.82Q6.62 13.26 6.09 13.40L6.09 13.40L6.09 13.40Q5.56 13.55 4.80 13.55L4.80 13.55L4.80 13.55Q4.24 13.55 3.32 13.47L3.32 13.47L3.32 13.47Q2.39 13.40 2.30 13.40L2.30 13.40L2.30 13.40Q2.14 13.40 1.74 13.43L1.74 13.43L1.74 13.43Q1.34 13.45 1.09 13.45L1.09 13.45L0.90 13.45L0.90 13.45Q0.60 13.45 0.60 13.24L0.60 13.24L0.60 13.24Q0.60 13.05 0.76 13.05L0.76 13.05L0.76 13.05Q0.84 13.05 0.94 13.04L0.94 13.04L0.94 13.04Q1.04 13.03 1.08 13.03L1.08 13.03L1.08 13.03Q1.20 13.03 1.32 12.94L1.32 12.94L1.32 12.94Q1.44 12.85 1.57 12.54L1.57 12.54L1.57 12.54Q1.69 12.22 1.71 11.73L1.71 11.73L1.71 11.73Q1.75 10.82 1.75 7.36L1.75 7.36L1.75 4.98L1.75 4.98Q1.75 4.89 1.72 4.75L1.72 4.75L1.72 4.75Q1.68 4.62 1.57 4.40L1.57 4.40L1.57 4.40Q1.47 4.19 1.20 4.04L1.20 4.04L1.20 4.04Q0.92 3.89 0.52 3.89L0.52 3.89L0.52 3.89Q0.28 3.89 0.28 3.72ZM2.81 12.15L2.81 12.15L2.81 12.15Q2.81 12.99 4.19 12.99L4.19 12.99L4.51 12.99L4.51 12.99Q5.26 12.99 5.71 12.92L5.71 12.92L5.71 12.92Q6.37 12.81 6.80 12.24L6.80 12.24L6.80 12.24Q7.22 11.66 7.22 10.86L7.22 10.86L7.22 10.86Q7.22 10.18 6.97 9.68L6.97 9.68L6.97 9.68Q6.72 9.18 6.40 8.93L6.40 8.93L6.40 8.93Q6.08 8.68 5.63 8.54L5.63 8.54L5.63 8.54Q5.19 8.40 4.95 8.37L4.95 8.37L4.95 8.37Q4.70 8.34 4.48 8.34L4.48 8.34L4.48 8.34Q4.03 8.34 3.75 8.34L3.75 8.34L3.75 8.34Q3.46 8.33 3.38 8.33L3.38 8.33L3.38 8.33Q3.30 8.33 3.25 8.32L3.25 8.32L3.25 8.32Q3.21 8.32 3.18 8.32L3.18 8.32L3.18 8.32Q3.05 8.32 3.00 8.35L3.00 8.35L3.00 8.35Q2.94 8.39 2.89 8.62L2.89 8.62L2.89 8.62Q2.84 8.85 2.83 9.28L2.83 9.28L2.83 9.28Q2.83 9.72 2.83 10.58L2.83 10.58L2.83 10.70L2.83 10.70Q2.83 11.21 2.83 11.54L2.83 11.54L2.83 11.54Q2.83 11.86 2.82 11.99L2.82 11.99L2.82 11.99Q2.81 12.12 2.81 12.15ZM2.90 5.40L2.90 5.81L2.90 5.81Q2.90 6.51 2.91 6.90L2.91 6.90L2.91 6.90Q2.91 7.29 2.94 7.50L2.94 7.50L2.94 7.50Q2.97 7.71 3.00 7.77L3.00 7.77L3.00 7.77Q3.02 7.83 3.08 7.83L3.08 7.83L3.08 7.83Q3.47 7.87 3.79 7.87L3.79 7.87L4.69 7.87L4.69 7.87Q5.57 7.87 6.01 7.41L6.01 7.41L6.01 7.41Q6.45 6.94 6.45 6.22L6.45 6.22L6.45 6.22Q6.45 5.43 5.72 4.70L5.72 4.70L5.72 4.70Q4.98 3.96 3.63 3.96L3.63 3.96L3.63 3.96Q3.19 3.96 3.04 4.22L3.04 4.22L3.04 4.22Q2.90 4.48 2.90 5.40L2.90 5.40ZM16.10 7.67L16.10 7.67L16.10 7.67Q16.10 7.50 16.38 7.50L16.38 7.50L16.38 7.50Q16.77 7.50 17.18 7.52L17.18 7.52L17.18 7.52Q17.60 7.53 17.88 7.53L17.88 7.53L17.88 7.53Q18.12 7.53 18.30 7.52L18.30 7.52L18.30 7.52Q18.49 7.50 18.68 7.50L18.68 7.50L18.68 7.50Q18.77 7.50 18.85 7.55L18.85 7.55L18.85 7.55Q18.93 7.60 18.93 7.66L18.93 7.66L18.93 7.66Q18.93 7.91 18.59 7.91L18.59 7.91L18.38 7.91L18.38 7.91Q18.16 7.91 18.16 8.30L18.16 8.30L18.16 8.30Q18.16 8.61 18.76 9.94L18.76 9.94L18.76 9.94Q18.80 10.05 18.83 10.11L18.83 10.11L18.83 10.11Q18.86 10.18 18.91 10.28L18.91 10.28L18.91 10.28Q18.96 10.39 19.00 10.49L19.00 10.49L19.00 10.49Q19.08 10.67 19.28 11.12L19.28 11.12L19.28 11.12Q19.47 11.56 19.58 11.77L19.58 11.77L19.58 11.77Q19.68 11.98 19.74 11.98L19.74 11.98L19.74 11.98Q19.82 11.98 20.39 10.37L20.39 10.37L20.39 10.37Q20.96 8.76 20.96 8.43L20.96 8.43L20.96 8.43Q20.96 8.15 20.82 8.02L20.82 8.02L20.82 8.02Q20.69 7.90 20.52 7.90L20.52 7.90L20.52 7.90Q20.36 7.91 20.22 7.86L20.22 7.86L20.22 7.86Q20.09 7.81 20.09 7.66L20.09 7.66L20.09 7.66Q20.09 7.49 20.36 7.49L20.36 7.49L20.36 7.49Q20.57 7.49 20.91 7.50L20.91 7.50L20.91 7.50Q21.25 7.50 21.36 7.50L21.36 7.50L21.36 7.50Q21.50 7.50 21.85 7.50L21.85 7.50L21.85 7.50Q22.19 7.49 22.23 7.49L22.23 7.49L22.23 7.49Q22.53 7.49 22.53 7.67L22.53 7.67L22.53 7.67Q22.53 7.81 22.28 7.87L22.28 7.87L22.28 7.87Q22.04 7.94 21.95 8.05L21.95 8.05L21.95 8.05Q21.73 8.37 21.20 9.81L21.20 9.81L19.95 13.13L19.95 13.13Q19.80 13.54 19.64 13.96L19.64 13.96L19.64 13.96Q19.49 14.39 19.39 14.66L19.39 14.66L19.39 14.66Q19.29 14.92 19.19 15.19L19.19 15.19L19.19 15.19Q19.10 15.46 19.04 15.60L19.04 15.60L19.04 15.60Q18.98 15.75 18.92 15.88L18.92 15.88L18.92 15.88Q18.86 16.00 18.81 16.05L18.81 16.05L18.81 16.05Q18.76 16.10 18.72 16.10L18.72 16.10L18.72 16.10Q18.70 16.10 18.67 16.10L18.67 16.10L18.67 16.10Q18.63 16.10 18.49 16.11L18.49 16.11L18.49 16.11Q18.35 16.11 18.07 16.11L18.07 16.11L18.07 16.11Q17.81 16.11 17.81 15.93L17.81 15.93L17.81 15.93Q17.81 15.89 18.12 15.50L18.12 15.50L18.12 15.50Q18.44 15.11 18.76 14.53L18.76 14.53L18.76 14.53Q19.08 13.96 19.08 13.48L19.08 13.48L19.08 13.48Q19.08 13.08 18.28 11.34L18.28 11.34L18.28 11.34Q17.49 9.60 16.90 8.50L16.90 8.50L16.90 8.50Q16.74 8.22 16.58 8.06L16.58 8.06L16.58 8.06Q16.42 7.91 16.32 7.90L16.32 7.90L16.32 7.90Q16.23 7.88 16.16 7.84L16.16 7.84L16.16 7.84Q16.10 7.80 16.10 7.67ZM40.05 3.65L40.05 3.65L40.05 3.65Q40.05 3.46 40.45 3.46L40.45 3.46L40.45 3.46Q40.50 3.46 40.63 3.47L40.63 3.47L40.63 3.47Q40.75 3.49 40.82 3.49L40.82 3.49L40.82 3.49Q40.87 3.49 42.14 3.52L42.14 3.52L42.14 3.52Q43.41 3.56 44.24 3.56L44.24 3.56L44.24 3.56Q44.53 3.56 45.69 3.53L45.69 3.53L45.69 3.53Q46.84 3.50 47.04 3.50L47.04 3.50L47.04 3.50Q47.31 3.50 47.31 3.82L47.31 3.82L47.31 3.82Q47.31 3.91 47.22 4.38L47.22 4.38L47.22 4.38Q47.14 4.84 47.14 5.25L47.14 5.25L47.14 5.25Q47.14 5.38 47.07 5.47L47.07 5.47L47.07 5.47Q47.00 5.56 46.91 5.56L46.91 5.56L46.91 5.56Q46.70 5.56 46.70 5.26L46.70 5.26L46.70 5.26Q46.70 4.89 46.47 4.58L46.47 4.58L46.47 4.58Q46.23 4.27 45.88 4.26L45.88 4.26L45.88 4.26Q44.62 4.16 43.95 4.16L43.95 4.16L43.58 4.16L43.58 4.16Q42.85 4.16 42.73 4.26L42.73 4.26L42.73 4.26Q42.62 4.37 42.59 5.01L42.59 5.01L42.59 5.01Q42.53 6.02 42.53 7.35L42.53 7.35L42.53 7.35Q42.53 8.05 42.80 8.06L42.80 8.06L43.15 8.06L43.74 8.06L44.17 8.06L44.17 8.06Q45.01 8.06 45.29 8.01L45.29 8.01L45.29 8.01Q45.57 7.95 45.79 7.80L45.79 7.80L45.79 7.80Q46.06 7.62 46.12 7.28L46.12 7.28L46.12 7.28Q46.16 7.04 46.31 7.04L46.31 7.04L46.31 7.04Q46.44 7.04 46.47 7.08L46.47 7.08L46.47 7.08Q46.49 7.13 46.49 7.27L46.49 7.27L46.49 7.27Q46.49 7.36 46.44 7.91L46.44 7.91L46.44 7.91Q46.38 8.46 46.38 8.74L46.38 8.74L46.38 8.74Q46.38 9.00 46.40 9.24L46.40 9.24L46.40 9.24Q46.42 9.48 46.42 9.59L46.42 9.59L46.42 9.59Q46.42 9.94 46.33 9.94L46.33 9.94L46.33 9.94Q46.12 9.94 46.02 9.60L46.02 9.60L46.02 9.60Q45.82 9.02 45.67 8.92L45.67 8.92L45.67 8.92Q45.37 8.72 44.32 8.72L44.32 8.72L44.32 8.72Q43.90 8.72 43.65 8.72L43.65 8.72L43.65 8.72Q43.39 8.72 43.31 8.71L43.31 8.71L43.31 8.71Q43.23 8.71 43.18 8.71L43.18 8.71L43.18 8.71Q43.13 8.71 43.09 8.71L43.09 8.71L43.09 8.71Q42.52 8.71 42.52 8.97L42.52 8.97L42.52 8.97Q42.52 9.38 42.50 9.99L42.50 9.99L42.50 9.99Q42.49 10.60 42.49 10.99L42.49 10.99L42.49 11.55L42.49 11.55Q42.49 12.56 42.83 12.66L42.83 12.66L42.83 12.66Q43.18 12.77 43.43 12.77L43.43 12.77L43.43 12.77Q44.48 12.77 45.27 12.67L45.27 12.67L45.27 12.67Q46.06 12.57 46.46 12.42L46.46 12.42L46.46 12.42Q46.86 12.28 47.12 12.10L47.12 12.10L47.12 12.10Q47.39 11.93 47.47 11.78L47.47 11.78L47.47 11.78Q47.54 11.63 47.62 11.54L47.62 11.54L47.62 11.54Q47.70 11.44 47.78 11.44L47.78 11.44L47.78 11.44Q47.95 11.44 47.95 11.68L47.95 11.68L47.95 11.68Q47.95 12.28 47.35 12.89L47.35 12.89L47.35 12.89Q46.75 13.51 46.30 13.51L46.30 13.51L46.30 13.51Q45.29 13.51 44.02 13.44L44.02 13.44L44.02 13.44Q42.76 13.37 42.45 13.37L42.45 13.37L42.45 13.37Q42.06 13.37 41.47 13.43L41.47 13.43L41.47 13.43Q40.88 13.50 40.54 13.50L40.54 13.50L40.54 13.50Q40.25 13.50 40.25 13.36L40.25 13.36L40.25 13.36Q40.25 13.23 40.25 13.19L40.25 13.19L40.25 13.19Q40.25 13.15 40.29 13.12L40.29 13.12L40.29 13.12Q40.33 13.09 40.38 13.08L40.38 13.08L40.38 13.08Q40.43 13.08 40.56 13.03L40.56 13.03L40.56 13.03Q40.70 12.99 40.85 12.92L40.85 12.92L40.85 12.92Q41.19 12.75 41.29 12.26L41.29 12.26L41.29 12.26Q41.40 11.77 41.40 10.21L41.40 10.21L41.40 8.47L41.40 8.47Q41.40 8.09 41.42 7.29L41.42 7.29L41.42 7.29Q41.44 6.50 41.44 6.05L41.44 6.05L41.44 6.05Q41.44 5.67 41.41 4.77L41.41 4.77L41.41 4.77Q41.40 4.37 41.06 4.14L41.06 4.14L41.06 4.14Q40.73 3.92 40.28 3.91L40.28 3.91L40.28 3.91Q40.05 3.91 40.05 3.65ZM55.90 12.25L55.90 12.25L55.90 12.25Q55.90 11.75 56.11 11.40L56.11 11.40L56.11 11.40Q56.32 11.06 56.75 10.87L56.75 10.87L56.75 10.87Q57.18 10.68 57.64 10.57L57.64 10.57L57.64 10.57Q58.10 10.46 58.76 10.35L58.76 10.35L58.76 10.35Q58.84 10.33 58.88 10.32L58.88 10.32L58.88 10.32Q58.93 10.32 59.00 10.31L59.00 10.31L59.00 10.31Q59.07 10.30 59.12 10.29L59.12 10.29L59.12 10.29Q59.22 10.28 59.26 10.26L59.26 10.26L59.26 10.26Q59.29 10.25 59.33 10.20L59.33 10.20L59.33 10.20Q59.36 10.15 59.36 10.07L59.36 10.07L59.36 10.07Q59.36 9.93 59.37 9.68L59.37 9.68L59.37 9.68Q59.39 9.44 59.39 9.34L59.39 9.34L59.39 9.34Q59.39 8.54 58.93 8.18L58.93 8.18L58.93 8.18Q58.46 7.83 58.03 7.83L58.03 7.83L58.03 7.83Q57.02 7.83 57.02 8.67L57.02 8.67L57.02 8.67Q57.02 8.78 57.05 8.95L57.05 8.95L57.05 8.95Q57.08 9.11 57.08 9.17L57.08 9.17L57.08 9.17Q57.08 9.45 56.83 9.45L56.83 9.45L56.83 9.45Q56.74 9.45 56.62 9.43L56.62 9.43L56.62 9.43Q56.49 9.41 56.33 9.36L56.33 9.36L56.33 9.36Q56.17 9.31 56.06 9.19L56.06 9.19L56.06 9.19Q55.96 9.07 55.96 8.90L55.96 8.90L55.96 8.90Q55.96 8.36 56.69 7.86L56.69 7.86L56.69 7.86Q57.43 7.36 58.31 7.36L58.31 7.36L58.31 7.36Q58.91 7.36 59.33 7.50L59.33 7.50L59.33 7.50Q59.75 7.64 59.96 7.82L59.96 7.82L59.96 7.82Q60.16 7.99 60.27 8.28L60.27 8.28L60.27 8.28Q60.38 8.57 60.40 8.73L60.40 8.73L60.40 8.73Q60.41 8.89 60.41 9.13L60.41 9.13L60.41 9.13Q60.41 10.14 60.38 10.72L60.38 10.72L60.38 10.72Q60.34 11.30 60.34 11.73L60.34 11.73L60.34 11.73Q60.34 12.25 60.45 12.55L60.45 12.55L60.45 12.55Q60.56 12.85 60.72 12.94L60.72 12.94L60.72 12.94Q60.87 13.02 61.03 13.03L61.03 13.03L61.03 13.03Q61.18 13.05 61.29 13.09L61.29 13.09L61.29 13.09Q61.40 13.13 61.40 13.26L61.40 13.26L61.40 13.26Q61.40 13.55 60.52 13.55L60.52 13.55L60.52 13.55Q60.16 13.55 59.90 13.36L59.90 13.36L59.90 13.36Q59.64 13.16 59.53 12.97L59.53 12.97L59.53 12.97Q59.42 12.78 59.40 12.78L59.40 12.78L59.40 12.78Q59.39 12.78 59.29 12.87L59.29 12.87L59.29 12.87Q59.19 12.96 59.02 13.09L59.02 13.09L59.02 13.09Q58.84 13.22 58.63 13.34L58.63 13.34L58.63 13.34Q58.41 13.47 58.12 13.56L58.12 13.56L58.12 13.56Q57.83 13.65 57.55 13.65L57.55 13.65L57.55 13.65Q56.66 13.65 56.25 13.23L56.25 13.23L56.25 13.23Q55.90 12.88 55.90 12.25ZM56.99 12.04L56.99 12.04L56.99 12.04Q56.99 12.52 57.27 12.80L57.27 12.80L57.27 12.80Q57.55 13.09 58.07 13.09L58.07 13.09L58.07 13.09Q58.44 13.09 58.70 12.98L58.70 12.98L58.70 12.98Q58.95 12.87 59.08 12.73L59.08 12.73L59.08 12.73Q59.21 12.59 59.28 12.36L59.28 12.36L59.28 12.36Q59.35 12.12 59.35 12.00L59.35 12.00L59.35 12.00Q59.36 11.87 59.36 11.66L59.36 11.66L59.36 10.65L59.36 10.65Q59.36 10.53 59.26 10.53L59.26 10.53L59.26 10.53Q59.23 10.53 59.19 10.54L59.19 10.54L59.19 10.54Q59.15 10.56 59.12 10.56L59.12 10.56L59.12 10.56Q58.80 10.61 58.72 10.63L58.72 10.63L58.72 10.63Q58.63 10.64 58.32 10.71L58.32 10.71L58.32 10.71Q58.02 10.78 57.90 10.84L57.90 10.84L57.90 10.84Q57.78 10.89 57.56 11.01L57.56 11.01L57.56 11.01Q57.34 11.13 57.25 11.26L57.25 11.26L57.25 11.26Q57.16 11.40 57.08 11.60L57.08 11.60L57.08 11.60Q56.99 11.80 56.99 12.04ZM69.45 12.84L69.45 12.84L69.45 11.62L69.45 11.62Q69.45 11.47 69.52 11.36L69.52 11.36L69.52 11.36Q69.58 11.26 69.66 11.26L69.66 11.26L69.66 11.26Q69.80 11.26 69.85 11.32L69.85 11.32L69.85 11.32Q69.90 11.38 69.94 11.58L69.94 11.58L69.94 11.58Q69.99 11.77 70.03 11.86L70.03 11.86L70.03 11.86Q70.55 13.15 71.48 13.15L71.48 13.15L71.48 13.15Q71.92 13.15 72.31 12.91L72.31 12.91L72.31 12.91Q72.70 12.68 72.70 12.15L72.70 12.15L72.70 12.15Q72.70 11.69 72.38 11.38L72.38 11.38L72.38 11.38Q72.06 11.07 71.60 10.90L71.60 10.90L71.60 10.90Q71.13 10.72 70.67 10.54L70.67 10.54L70.67 10.54Q70.21 10.35 69.89 9.97L69.89 9.97L69.89 9.97Q69.57 9.60 69.57 9.04L69.57 9.04L69.57 9.04Q69.57 8.26 70.20 7.78L70.20 7.78L70.20 7.78Q70.83 7.31 71.68 7.31L71.68 7.31L71.68 7.31Q72.34 7.31 72.73 7.43L72.73 7.43L72.73 7.43Q73.12 7.55 73.20 7.64L73.20 7.64L73.20 7.64Q73.28 7.74 73.28 7.83L73.28 7.83L73.28 7.83Q73.28 7.84 73.30 8.20L73.30 8.20L73.30 8.20Q73.33 8.57 73.33 8.67L73.33 8.67L73.33 8.67Q73.33 8.90 73.28 8.99L73.28 8.99L73.28 8.99Q73.22 9.07 73.08 9.07L73.08 9.07L73.08 9.07Q73.01 9.07 72.89 8.87L72.89 8.87L72.89 8.87Q72.77 8.67 72.63 8.43L72.63 8.43L72.63 8.43Q72.48 8.19 72.15 7.99L72.15 7.99L72.15 7.99Q71.82 7.78 71.39 7.78L71.39 7.78L71.39 7.78Q70.98 7.78 70.71 7.99L70.71 7.99L70.71 7.99Q70.45 8.19 70.45 8.50L70.45 8.50L70.45 8.50Q70.45 8.67 70.49 8.81L70.49 8.81L70.49 8.81Q70.53 8.96 70.64 9.07L70.64 9.07L70.64 9.07Q70.74 9.18 70.82 9.26L70.82 9.26L70.82 9.26Q70.90 9.34 71.08 9.42L71.08 9.42L71.08 9.42Q71.26 9.51 71.35 9.54L71.35 9.54L71.35 9.54Q71.44 9.58 71.66 9.65L71.66 9.65L71.66 9.65Q71.88 9.73 71.95 9.76L71.95 9.76L71.95 9.76Q72.95 10.14 73.30 10.55L73.30 10.55L73.30 10.55Q73.65 10.96 73.65 11.77L73.65 11.77L73.65 11.77Q73.65 12.56 72.91 13.23L72.91 13.23L72.91 13.23Q72.41 13.66 71.53 13.66L71.53 13.66L71.53 13.66Q71.27 13.66 70.99 13.61L70.99 13.61L70.99 13.61Q70.71 13.55 70.55 13.50L70.55 13.50L70.55 13.50Q70.39 13.45 70.18 13.37L70.18 13.37L70.18 13.37Q69.97 13.29 69.96 13.29L69.96 13.29L69.96 13.29Q69.90 13.27 69.83 13.24L69.83 13.24L69.83 13.24Q69.75 13.22 69.71 13.21L69.71 13.21L69.71 13.21Q69.68 13.20 69.62 13.17L69.62 13.17L69.62 13.17Q69.57 13.15 69.55 13.13L69.55 13.13L69.55 13.13Q69.52 13.10 69.50 13.06L69.50 13.06L69.50 13.06Q69.47 13.02 69.46 12.96L69.46 12.96L69.46 12.96Q69.45 12.91 69.45 12.84ZM81.47 7.67L81.47 7.67L81.47 7.67Q81.47 7.50 81.75 7.50L81.75 7.50L81.75 7.50Q82.14 7.50 82.55 7.52L82.55 7.52L82.55 7.52Q82.96 7.53 83.24 7.53L83.24 7.53L83.24 7.53Q83.48 7.53 83.67 7.52L83.67 7.52L83.67 7.52Q83.86 7.50 84.04 7.50L84.04 7.50L84.04 7.50Q84.14 7.50 84.22 7.55L84.22 7.55L84.22 7.55Q84.29 7.60 84.29 7.66L84.29 7.66L84.29 7.66Q84.29 7.91 83.96 7.91L83.96 7.91L83.75 7.91L83.75 7.91Q83.52 7.91 83.52 8.30L83.52 8.30L83.52 8.30Q83.52 8.61 84.13 9.94L84.13 9.94L84.13 9.94Q84.17 10.05 84.20 10.11L84.20 10.11L84.20 10.11Q84.22 10.18 84.27 10.28L84.27 10.28L84.27 10.28Q84.32 10.39 84.36 10.49L84.36 10.49L84.36 10.49Q84.45 10.67 84.64 11.12L84.64 11.12L84.64 11.12Q84.84 11.56 84.94 11.77L84.94 11.77L84.94 11.77Q85.05 11.98 85.11 11.98L85.11 11.98L85.11 11.98Q85.19 11.98 85.76 10.37L85.76 10.37L85.76 10.37Q86.32 8.76 86.32 8.43L86.32 8.43L86.32 8.43Q86.32 8.15 86.19 8.02L86.19 8.02L86.19 8.02Q86.06 7.90 85.89 7.90L85.89 7.90L85.89 7.90Q85.72 7.91 85.59 7.86L85.59 7.86L85.59 7.86Q85.46 7.81 85.46 7.66L85.46 7.66L85.46 7.66Q85.46 7.49 85.72 7.49L85.72 7.49L85.72 7.49Q85.93 7.49 86.27 7.50L86.27 7.50L86.27 7.50Q86.62 7.50 86.73 7.50L86.73 7.50L86.73 7.50Q86.87 7.50 87.21 7.50L87.21 7.50L87.21 7.50Q87.56 7.49 87.60 7.49L87.60 7.49L87.60 7.49Q87.89 7.49 87.89 7.67L87.89 7.67L87.89 7.67Q87.89 7.81 87.65 7.87L87.65 7.87L87.65 7.87Q87.40 7.94 87.32 8.05L87.32 8.05L87.32 8.05Q87.09 8.37 86.56 9.81L86.56 9.81L85.32 13.13L85.32 13.13Q85.16 13.54 85.01 13.96L85.01 13.96L85.01 13.96Q84.85 14.39 84.76 14.66L84.76 14.66L84.76 14.66Q84.66 14.92 84.56 15.19L84.56 15.19L84.56 15.19Q84.46 15.46 84.41 15.60L84.41 15.60L84.41 15.60Q84.35 15.75 84.29 15.88L84.29 15.88L84.29 15.88Q84.22 16.00 84.17 16.05L84.17 16.05L84.17 16.05Q84.13 16.10 84.08 16.10L84.08 16.10L84.08 16.10Q84.07 16.10 84.03 16.10L84.03 16.10L84.03 16.10Q84 16.10 83.86 16.11L83.86 16.11L83.86 16.11Q83.72 16.11 83.44 16.11L83.44 16.11L83.44 16.11Q83.17 16.11 83.17 15.93L83.17 15.93L83.17 15.93Q83.17 15.89 83.49 15.50L83.49 15.50L83.49 15.50Q83.80 15.11 84.13 14.53L84.13 14.53L84.13 14.53Q84.45 13.96 84.45 13.48L84.45 13.48L84.45 13.48Q84.45 13.08 83.65 11.34L83.65 11.34L83.65 11.34Q82.85 9.60 82.26 8.50L82.26 8.50L82.26 8.50Q82.11 8.22 81.95 8.06L81.95 8.06L81.95 8.06Q81.79 7.91 81.69 7.90L81.69 7.90L81.69 7.90Q81.59 7.88 81.53 7.84L81.53 7.84L81.53 7.84Q81.47 7.80 81.47 7.67ZM105.97 10.82L105.97 10.82L105.97 10.82Q105.97 10.53 106.16 10.53L106.16 10.53L106.16 10.53Q106.34 10.53 106.39 10.67L106.39 10.67L106.39 10.67Q106.53 11.00 106.64 11.25L106.64 11.25L106.64 11.25Q106.76 11.49 107.03 11.85L107.03 11.85L107.03 11.85Q107.30 12.21 107.60 12.44L107.60 12.44L107.60 12.44Q107.91 12.67 108.39 12.84L108.39 12.84L108.39 12.84Q108.88 13.01 109.45 13.01L109.45 13.01L109.45 13.01Q110.50 13.01 111.14 12.45L111.14 12.45L111.14 12.45Q111.78 11.90 111.78 11.00L111.78 11.00L111.78 11.00Q111.78 10.35 111.34 9.90L111.34 9.90L111.34 9.90Q110.91 9.46 110.35 9.27L110.35 9.27L110.35 9.27Q109.79 9.09 108.93 8.77L108.93 8.77L108.93 8.77Q108.07 8.46 107.52 8.13L107.52 8.13L107.52 8.13Q106.25 7.38 106.25 6.08L106.25 6.08L106.25 6.08Q106.25 4.83 107.15 4.08L107.15 4.08L107.15 4.08Q108.05 3.33 109.49 3.33L109.49 3.33L109.49 3.33Q110.03 3.33 110.76 3.56L110.76 3.56L110.76 3.56Q111.50 3.79 111.51 3.79L111.51 3.79L111.51 3.79Q111.55 3.79 111.66 3.74L111.66 3.74L111.66 3.74Q111.78 3.68 111.83 3.68L111.83 3.68L111.83 3.68Q112.01 3.68 112.04 3.79L112.04 3.79L112.04 3.79Q112.34 5.49 112.34 5.70L112.34 5.70L112.34 5.70Q112.34 6.09 112.14 6.09L112.14 6.09L112.14 6.09Q112.01 6.09 111.94 5.89L111.94 5.89L111.94 5.89Q111.78 5.49 111.61 5.24L111.61 5.24L111.61 5.24Q111.45 4.98 111.38 4.91L111.38 4.91L111.38 4.91Q111.31 4.84 111.02 4.58L111.02 4.58L111.02 4.58Q110.26 3.91 109.19 3.91L109.19 3.91L109.19 3.91Q108.32 3.91 107.73 4.33L107.73 4.33L107.73 4.33Q107.14 4.75 107.14 5.46L107.14 5.46L107.14 5.46Q107.14 6.09 107.48 6.50L107.48 6.50L107.48 6.50Q107.83 6.90 108.40 7.13L108.40 7.13L108.40 7.13Q108.98 7.35 109.61 7.55L109.61 7.55L109.61 7.55Q110.24 7.74 110.94 8.09L110.94 8.09L110.94 8.09Q111.65 8.44 112.11 8.93L112.11 8.93L112.11 8.93Q112.67 9.53 112.67 10.43L112.67 10.43L112.67 10.43Q112.67 11.90 111.73 12.76L111.73 12.76L111.73 12.76Q110.80 13.62 109.41 13.62L109.41 13.62L109.41 13.62Q108.44 13.62 107.86 13.52L107.86 13.52L107.86 13.52Q107.27 13.41 106.65 13.09L106.65 13.09L106.65 13.09Q106.47 12.98 106.22 12.00L106.22 12.00L106.22 12.00Q105.97 11.02 105.97 10.82ZM121.03 10.75L121.03 10.75L121.03 10.75Q121.03 9.41 121.93 8.42L121.93 8.42L121.93 8.42Q122.84 7.43 124.28 7.43L124.28 7.43L124.28 7.43Q124.77 7.43 125.33 7.57L125.33 7.57L125.33 7.57Q125.90 7.71 125.92 7.90L125.92 7.90L125.92 7.90Q125.94 8.23 125.94 8.55L125.94 8.55L125.94 8.55Q125.94 9.17 125.79 9.17L125.79 9.17L125.79 9.17Q125.71 9.17 125.64 9.11L125.64 9.11L125.64 9.11Q125.58 9.04 125.50 8.92L125.50 8.92L125.50 8.92Q125.43 8.79 125.33 8.72L125.33 8.72L125.33 8.72Q125.02 8.46 124.49 8.22L124.49 8.22L124.49 8.22Q123.97 7.98 123.47 7.98L123.47 7.98L123.47 7.98Q123.37 7.98 123.21 8.03L123.21 8.03L123.21 8.03Q123.06 8.08 122.86 8.24L122.86 8.24L122.86 8.24Q122.65 8.40 122.49 8.64L122.49 8.64L122.49 8.64Q122.32 8.89 122.20 9.32L122.20 9.32L122.20 9.32Q122.08 9.76 122.08 10.30L122.08 10.30L122.08 10.30Q122.08 11.40 122.77 12.20L122.77 12.20L122.77 12.20Q123.47 13.01 124.47 13.01L124.47 13.01L124.47 13.01Q124.96 13.01 125.38 12.82L125.38 12.82L125.38 12.82Q125.80 12.64 126.03 12.46L126.03 12.46L126.03 12.46Q126.27 12.28 126.32 12.28L126.32 12.28L126.32 12.28Q126.48 12.28 126.48 12.42L126.48 12.42L126.48 12.42Q126.48 12.46 126.38 12.60L126.38 12.60L126.38 12.60Q126.29 12.74 126.09 12.94L126.09 12.94L126.09 12.94Q125.89 13.13 125.61 13.31L125.61 13.31L125.61 13.31Q125.33 13.48 124.88 13.61L124.88 13.61L124.88 13.61Q124.43 13.73 123.93 13.73L123.93 13.73L123.93 13.73Q122.61 13.73 121.82 12.94L121.82 12.94L121.82 12.94Q121.03 12.14 121.03 10.75ZM134.12 8.12L134.12 8.12L134.12 8.12Q134.12 7.97 134.31 7.89L134.31 7.89L134.31 7.89Q134.50 7.81 135.01 7.65L135.01 7.65L135.01 7.65Q135.52 7.49 135.97 7.28L135.97 7.28L135.97 7.28Q136.11 7.22 136.16 7.22L136.16 7.22L136.16 7.22Q136.35 7.22 136.35 7.50L136.35 7.50L136.35 7.50Q136.35 7.56 136.34 7.69L136.34 7.69L136.34 7.69Q136.33 7.81 136.33 7.88L136.33 7.88L136.33 7.88Q136.33 8.18 136.35 8.30L136.35 8.30L136.35 8.30Q136.36 8.43 136.38 8.46L136.38 8.46L136.38 8.46Q136.40 8.48 136.44 8.48L136.44 8.48L136.44 8.48Q136.47 8.48 136.65 8.20L136.65 8.20L136.65 8.20Q136.84 7.92 137.17 7.64L137.17 7.64L137.17 7.64Q137.51 7.35 137.91 7.35L137.91 7.35L137.91 7.35Q138.17 7.35 138.57 7.62L138.57 7.62L138.57 7.62Q138.87 7.81 138.87 8.02L138.87 8.02L138.87 8.02Q138.87 8.27 138.75 8.47L138.75 8.47L138.75 8.47Q138.64 8.67 138.54 8.74L138.54 8.74L138.54 8.74Q138.43 8.81 138.39 8.81L138.39 8.81L138.39 8.81Q138.28 8.81 137.99 8.64L137.99 8.64L137.99 8.64Q137.70 8.47 137.33 8.47L137.33 8.47L137.33 8.47Q136.95 8.47 136.62 8.78L136.62 8.78L136.62 8.78Q136.29 9.09 136.29 9.34L136.29 9.34L136.29 10.79L136.29 10.79Q136.29 11.30 136.30 11.61L136.30 11.61L136.30 11.61Q136.30 11.93 136.30 12.00L136.30 12.00L136.30 12.00Q136.30 12.08 136.31 12.14L136.31 12.14L136.31 12.14Q136.32 12.19 136.32 12.26L136.32 12.26L136.32 12.26Q136.32 12.56 136.51 12.77L136.51 12.77L136.51 12.77Q136.71 12.98 136.98 13.02L136.98 13.02L136.98 13.02Q137.06 13.03 137.19 13.05L137.19 13.05L137.19 13.05Q137.31 13.06 137.38 13.07L137.38 13.07L137.38 13.07Q137.45 13.08 137.54 13.10L137.54 13.10L137.54 13.10Q137.62 13.12 137.65 13.16L137.65 13.16L137.65 13.16Q137.69 13.20 137.69 13.26L137.69 13.26L137.69 13.26Q137.69 13.48 137.52 13.48L137.52 13.48L137.52 13.48Q137.28 13.48 136.88 13.45L136.88 13.45L136.88 13.45Q136.47 13.41 136.33 13.41L136.33 13.41L136.33 13.41Q135.88 13.41 135.41 13.45L135.41 13.45L135.41 13.45Q134.93 13.48 134.88 13.48L134.88 13.48L134.88 13.48Q134.74 13.48 134.67 13.45L134.67 13.45L134.67 13.45Q134.60 13.43 134.58 13.40L134.58 13.40L134.58 13.40Q134.57 13.37 134.57 13.31L134.57 13.31L134.57 13.31Q134.57 13.13 134.75 13.08L134.75 13.08L134.75 13.08Q135.11 12.99 135.19 12.72L135.19 12.72L135.19 12.72Q135.27 12.45 135.27 11.55L135.27 11.55L135.27 11.55Q135.27 10.64 135.26 10.05L135.26 10.05L135.26 10.05Q135.25 9.46 135.25 9.30L135.25 9.30L135.25 9.30Q135.25 9.14 135.25 9.04L135.25 9.04L135.25 9.04Q135.24 8.95 135.24 8.88L135.24 8.88L135.24 8.88Q135.24 8.72 135.20 8.62L135.20 8.62L135.20 8.62Q135.16 8.53 134.99 8.44L134.99 8.44L134.99 8.44Q134.83 8.36 134.54 8.36L134.54 8.36L134.54 8.36Q134.53 8.36 134.47 8.35L134.47 8.35L134.47 8.35Q134.41 8.34 134.39 8.34L134.39 8.34L134.39 8.34Q134.12 8.34 134.12 8.12ZM146.57 8.11L146.57 8.11L146.57 8.11Q146.57 8.04 146.60 7.99L146.60 7.99L146.60 7.99Q146.64 7.95 146.74 7.90L146.74 7.90L146.74 7.90Q146.85 7.85 146.96 7.82L146.96 7.82L146.96 7.82Q147.07 7.78 147.29 7.71L147.29 7.71L147.29 7.71Q147.50 7.63 147.70 7.55L147.70 7.55L147.70 7.55Q147.85 7.48 147.99 7.42L147.99 7.42L147.99 7.42Q148.12 7.36 148.16 7.34L148.16 7.34L148.16 7.34Q148.20 7.32 148.26 7.31L148.26 7.31L148.26 7.31Q148.32 7.29 148.40 7.29L148.40 7.29L148.40 7.29Q148.61 7.29 148.61 7.56L148.61 7.56L148.61 7.56Q148.61 7.63 148.57 7.87L148.57 7.87L148.57 7.87Q148.53 8.11 148.53 8.23L148.53 8.23L148.53 12.07L148.53 12.07Q148.53 12.49 148.66 12.73L148.66 12.73L148.66 12.73Q148.79 12.96 148.94 13.02L148.94 13.02L148.94 13.02Q149.09 13.08 149.31 13.09L149.31 13.09L149.31 13.09Q149.48 13.10 149.53 13.11L149.53 13.11L149.53 13.11Q149.59 13.12 149.66 13.16L149.66 13.16L149.66 13.16Q149.73 13.20 149.73 13.30L149.73 13.30L149.73 13.30Q149.73 13.54 149.49 13.54L149.49 13.54L149.49 13.54Q149.46 13.54 149.39 13.53L149.39 13.53L149.39 13.53Q149.32 13.52 149.28 13.52L149.28 13.52L149.28 13.52Q148.97 13.52 148.76 13.51L148.76 13.51L148.76 13.51Q148.55 13.50 148.29 13.50L148.29 13.50L148.29 13.50Q147.95 13.50 147.66 13.51L147.66 13.51L147.66 13.51Q147.36 13.52 147.29 13.52L147.29 13.52L147.29 13.52Q146.73 13.52 146.73 13.34L146.73 13.34L146.73 13.34Q146.73 13.15 146.94 13.08L146.94 13.08L146.94 13.08Q146.96 13.08 147.00 13.06L147.00 13.06L147.00 13.06Q147.32 12.95 147.39 12.78L147.39 12.78L147.39 12.78Q147.52 12.50 147.52 10.56L147.52 10.56L147.52 9.32L147.52 9.32Q147.52 8.92 147.42 8.68L147.42 8.68L147.42 8.68Q147.32 8.44 147.24 8.39L147.24 8.39L147.24 8.39Q147.15 8.33 146.95 8.29L146.95 8.29L146.95 8.29Q146.75 8.26 146.71 8.25L146.71 8.25L146.71 8.25Q146.57 8.19 146.57 8.11ZM147.36 5.18L147.36 5.18L147.36 5.18Q147.36 5.01 147.61 4.71L147.61 4.71L147.61 4.71Q147.85 4.41 148.06 4.41L148.06 4.41L148.06 4.41Q148.29 4.41 148.50 4.70L148.50 4.70L148.50 4.70Q148.71 4.98 148.71 5.21L148.71 5.21L148.71 5.21Q148.71 5.43 148.44 5.70L148.44 5.70L148.44 5.70Q148.18 5.98 148.05 5.98L148.05 5.98L148.05 5.98Q147.77 5.98 147.57 5.68L147.57 5.68L147.57 5.68Q147.36 5.39 147.36 5.18ZM157.40 8.05L157.40 8.05L157.40 8.05Q157.40 7.98 157.52 7.94L157.52 7.94L157.52 7.94Q157.64 7.90 158.00 7.78L158.00 7.78L158.00 7.78Q158.37 7.67 158.77 7.48L158.77 7.48L158.77 7.48Q159.32 7.21 159.36 7.21L159.36 7.21L159.36 7.21Q159.54 7.21 159.54 7.39L159.54 7.39L159.54 7.39Q159.54 7.69 159.52 7.93L159.52 7.93L159.52 7.93Q159.49 8.18 159.49 8.22L159.49 8.22L159.49 8.22Q159.49 8.33 159.53 8.33L159.53 8.33L159.53 8.33Q159.54 8.33 159.65 8.23L159.65 8.23L159.65 8.23Q159.75 8.13 159.92 7.99L159.92 7.99L159.92 7.99Q160.09 7.84 160.32 7.70L160.32 7.70L160.32 7.70Q160.55 7.56 160.90 7.46L160.90 7.46L160.90 7.46Q161.25 7.36 161.63 7.36L161.63 7.36L161.63 7.36Q162.88 7.36 163.53 8.18L163.53 8.18L163.53 8.18Q164.19 9.00 164.19 10.18L164.19 10.18L164.19 10.18Q164.19 11.48 163.37 12.52L163.37 12.52L163.37 12.52Q162.55 13.57 161.18 13.57L161.18 13.57L161.18 13.57Q160.54 13.57 160.14 13.43L160.14 13.43L160.14 13.43Q159.74 13.30 159.59 13.17L159.59 13.17L159.59 13.17Q159.43 13.03 159.38 13.03L159.38 13.03L159.38 13.03Q159.33 13.03 159.33 13.15L159.33 13.15L159.33 14.69L159.33 14.87L159.33 14.87Q159.33 15.13 159.57 15.53L159.57 15.53L159.57 15.53Q159.73 15.78 160.04 15.82L160.04 15.82L160.04 15.82Q160.36 15.86 160.57 15.88L160.57 15.88L160.57 15.88Q160.79 15.89 160.79 16.07L160.79 16.07L160.79 16.07Q160.79 16.24 160.31 16.24L160.31 16.24L160.31 16.24Q160.23 16.24 159.87 16.21L159.87 16.21L159.87 16.21Q159.50 16.18 158.86 16.18L158.86 16.18L158.86 16.18Q158.61 16.18 158.32 16.20L158.32 16.20L158.32 16.20Q158.03 16.23 157.98 16.23L157.98 16.23L157.98 16.23Q157.67 16.23 157.58 16.20L157.58 16.20L157.58 16.20Q157.50 16.17 157.50 16.09L157.50 16.09L157.50 16.09Q157.50 15.96 157.63 15.90L157.63 15.90L157.63 15.90Q157.77 15.85 157.93 15.81L157.93 15.81L157.93 15.81Q158.10 15.76 158.23 15.46L158.23 15.46L158.23 15.46Q158.37 15.16 158.37 14.59L158.37 14.59L158.37 14.31L158.37 14.31Q158.37 12.66 158.39 11.56L158.39 11.56L158.39 11.56Q158.41 10.47 158.41 10.44L158.41 10.44L158.41 10.14L158.41 10.14Q158.41 8.97 158.30 8.59L158.30 8.59L158.30 8.59Q158.20 8.20 157.75 8.20L157.75 8.20L157.75 8.20Q157.51 8.20 157.46 8.17L157.46 8.17L157.46 8.17Q157.40 8.13 157.40 8.05ZM159.33 10.75L159.33 10.75L159.33 10.75Q159.33 10.89 159.34 11.10L159.34 11.10L159.34 11.10Q159.35 11.31 159.35 11.45L159.35 11.45L159.35 11.45Q159.35 11.94 159.56 12.29L159.56 12.29L159.56 12.29Q159.77 12.64 160.10 12.82L160.10 12.82L160.10 12.82Q160.43 12.99 160.75 13.07L160.75 13.07L160.75 13.07Q161.08 13.15 161.41 13.15L161.41 13.15L161.41 13.15Q162.32 13.15 162.80 12.48L162.80 12.48L162.80 12.48Q163.28 11.82 163.28 10.85L163.28 10.85L163.28 10.85Q163.28 9.74 162.69 8.90L162.69 8.90L162.69 8.90Q162.09 8.06 161.08 8.06L161.08 8.06L161.08 8.06Q160.37 8.06 159.81 8.51L159.81 8.51L159.81 8.51Q159.52 8.74 159.42 9.12L159.42 9.12L159.42 9.12Q159.33 9.51 159.33 10.75ZM172.05 8.06L172.05 8.06L172.05 8.06Q172.05 7.98 172.09 7.92L172.09 7.92L172.09 7.92Q172.14 7.85 172.23 7.80L172.23 7.80L172.23 7.80Q172.31 7.74 172.47 7.61L172.47 7.61L172.47 7.61Q172.63 7.48 172.79 7.31L172.79 7.31L172.79 7.31Q173.00 7.08 173.23 6.77L173.23 6.77L173.23 6.77Q173.46 6.45 173.59 6.31L173.59 6.31L173.59 6.31Q173.73 6.16 173.85 6.16L173.85 6.16L173.85 6.16Q174.01 6.16 174.01 6.48L174.01 6.48L174.01 6.48Q174.01 6.61 173.98 6.87L173.98 6.87L173.98 6.87Q173.95 7.14 173.95 7.28L173.95 7.28L173.95 7.28Q173.95 7.48 174.03 7.52L174.03 7.52L174.03 7.52Q174.10 7.56 174.52 7.56L174.52 7.56L175.01 7.56L175.01 7.56Q175.32 7.56 175.54 7.53L175.54 7.53L175.54 7.53Q175.76 7.50 175.84 7.46L175.84 7.46L175.84 7.46Q175.92 7.42 175.99 7.39L175.99 7.39L175.99 7.39Q176.05 7.36 176.09 7.36L176.09 7.36L176.09 7.36Q176.23 7.36 176.23 7.52L176.23 7.52L176.23 7.52Q176.23 7.63 176.05 7.96L176.05 7.96L176.05 7.96Q175.87 8.29 175.78 8.29L175.78 8.29L175.78 8.29Q175.57 8.29 175.38 8.28L175.38 8.28L175.38 8.28Q175.18 8.27 175.04 8.27L175.04 8.27L175.04 8.27Q174.90 8.26 174.78 8.25L174.78 8.25L174.78 8.25Q174.65 8.23 174.57 8.22L174.57 8.22L174.57 8.22Q174.48 8.22 174.42 8.21L174.42 8.21L174.42 8.21Q174.36 8.20 174.33 8.20L174.33 8.20L174.30 8.19L174.30 8.19Q174.03 8.19 173.96 8.27L173.96 8.27L173.96 8.27Q173.88 8.36 173.88 8.65L173.88 8.65L173.88 8.65Q173.88 8.81 173.85 9.82L173.85 9.82L173.85 9.82Q173.82 10.84 173.82 11.26L173.82 11.26L173.82 11.26Q173.82 12.17 174.06 12.52L174.06 12.52L174.06 12.52Q174.29 12.88 175.03 12.88L175.03 12.88L175.03 12.88Q175.32 12.88 175.68 12.75L175.68 12.75L175.68 12.75Q176.04 12.61 176.06 12.61L176.06 12.61L176.06 12.61Q176.20 12.61 176.20 12.78L176.20 12.78L176.20 12.78Q176.20 12.98 175.72 13.28L175.72 13.28L175.72 13.28Q175.24 13.58 174.68 13.58L174.68 13.58L174.68 13.58Q172.79 13.58 172.79 11.94L172.79 11.94L172.79 11.73L172.79 11.73Q172.79 11.19 172.80 10.40L172.80 10.40L172.80 10.40Q172.82 9.62 172.83 9.05L172.83 9.05L172.83 9.05Q172.84 8.48 172.84 8.47L172.84 8.47L172.84 8.47Q172.84 8.33 172.79 8.29L172.79 8.29L172.79 8.29Q172.73 8.25 172.55 8.25L172.55 8.25L172.55 8.25Q172.49 8.25 172.40 8.25L172.40 8.25L172.40 8.25Q172.31 8.26 172.28 8.26L172.28 8.26L172.28 8.26Q172.05 8.26 172.05 8.06Z"></path></g></svg>