<svg data-v-423bf9ae="" xmlns="http://www.w3.org/2000/svg" viewBox="0 0 245.87142399379184 60" class="font"><!----><!----><!----><g data-v-423bf9ae="" id="912349dc-a2a2-4268-9830-ce9fccd20a47" fill="black" transform="matrix(4.285714285714286,0,0,4.285714285714286,-1.6714310092585407,-10.114286763327463)"><path d="M8.51 5.97L8.51 5.97L8.51 5.97Q8.51 6.60 8.29 7.18L8.29 7.18L8.29 7.18Q8.07 7.76 7.58 8.20L7.58 8.20L7.58 8.20Q7.09 8.65 6.30 8.91L6.30 8.91L6.30 8.91Q5.52 9.17 4.38 9.17L4.38 9.17L3.90 9.17L3.90 11.42L3.90 11.42Q3.90 11.69 3.96 11.86L3.96 11.86L3.96 11.86Q4.03 12.02 4.13 12.11L4.13 12.11L4.13 12.11Q4.23 12.20 4.37 12.22L4.37 12.22L4.37 12.22Q4.50 12.25 4.65 12.25L4.65 12.25L5.50 12.25L5.50 13.00L0.39 13.00L0.39 12.25L0.98 12.25L0.98 12.25Q1.13 12.25 1.26 12.22L1.26 12.22L1.26 12.22Q1.39 12.19 1.49 12.09L1.49 12.09L1.49 12.09Q1.59 12.00 1.64 11.82L1.64 11.82L1.64 11.82Q1.70 11.64 1.70 11.34L1.70 11.34L1.70 4.59L1.70 4.59Q1.70 4.31 1.64 4.15L1.64 4.15L1.64 4.15Q1.59 3.98 1.49 3.89L1.49 3.89L1.49 3.89Q1.39 3.80 1.26 3.77L1.26 3.77L1.26 3.77Q1.13 3.74 0.98 3.74L0.98 3.74L0.39 3.74L0.39 3.00L4.69 3.00L4.69 3.00Q5.66 3.00 6.38 3.21L6.38 3.21L6.38 3.21Q7.10 3.41 7.57 3.80L7.57 3.80L7.57 3.80Q8.05 4.18 8.28 4.73L8.28 4.73L8.28 4.73Q8.51 5.28 8.51 5.97ZM3.90 3.83L3.90 8.36L4.25 8.36L4.25 8.36Q4.76 8.36 5.13 8.23L5.13 8.23L5.13 8.23Q5.49 8.10 5.72 7.82L5.72 7.82L5.72 7.82Q5.95 7.54 6.05 7.10L6.05 7.10L6.05 7.10Q6.16 6.65 6.16 6.02L6.16 6.02L6.16 6.02Q6.16 5.46 6.07 5.05L6.07 5.05L6.07 5.05Q5.97 4.63 5.77 4.36L5.77 4.36L5.77 4.36Q5.57 4.09 5.25 3.96L5.25 3.96L5.25 3.96Q4.92 3.83 4.45 3.83L4.45 3.83L3.90 3.83ZM13.89 5.49L17.04 5.49L17.04 6.23L17.04 6.23Q16.83 6.23 16.67 6.28L16.67 6.28L16.67 6.28Q16.51 6.33 16.38 6.45L16.38 6.45L16.38 6.45Q16.25 6.57 16.14 6.76L16.14 6.76L16.14 6.76Q16.03 6.96 15.92 7.25L15.92 7.25L15.92 7.25Q15.67 7.95 15.41 8.67L15.41 8.67L15.41 8.67Q15.14 9.40 14.87 10.13L14.87 10.13L14.87 10.13Q14.60 10.86 14.33 11.58L14.33 11.58L14.33 11.58Q14.06 12.30 13.81 13.00L13.81 13.00L13.81 13.00Q13.56 13.67 13.34 14.18L13.34 14.18L13.34 14.18Q13.13 14.70 12.88 15.07L12.88 15.07L12.88 15.07Q12.64 15.45 12.35 15.70L12.35 15.70L12.35 15.70Q12.05 15.94 11.66 16.09L11.66 16.09L11.66 16.09Q11.27 16.24 10.76 16.30L10.76 16.30L10.76 16.30Q10.24 16.36 9.55 16.36L9.55 16.36L9.31 16.36L9.31 15.54L9.31 15.54Q10.04 15.54 10.55 15.37L10.55 15.37L10.55 15.37Q11.07 15.19 11.42 14.86L11.42 14.86L11.42 14.86Q11.78 14.53 12.01 14.08L12.01 14.08L12.01 14.08Q12.24 13.62 12.41 13.06L12.41 13.06L9.88 6.90L9.88 6.90Q9.80 6.71 9.70 6.59L9.70 6.59L9.70 6.59Q9.60 6.47 9.48 6.41L9.48 6.41L9.48 6.41Q9.37 6.35 9.23 6.33L9.23 6.33L9.23 6.33Q9.09 6.32 8.93 6.32L8.93 6.32L8.93 5.49L12.93 5.49L12.93 6.23L12.93 6.23Q12.52 6.23 12.28 6.34L12.28 6.34L12.28 6.34Q12.04 6.45 12.04 6.75L12.04 6.75L12.04 6.75Q12.04 6.87 12.09 7.03L12.09 7.03L12.09 7.03Q12.14 7.19 12.18 7.29L12.18 7.29L12.18 7.29Q12.30 7.59 12.44 7.93L12.44 7.93L12.44 7.93Q12.57 8.28 12.70 8.62L12.70 8.62L12.70 8.62Q12.82 8.97 12.94 9.29L12.94 9.29L12.94 9.29Q13.06 9.61 13.15 9.86L13.15 9.86L13.15 9.86Q13.25 10.12 13.32 10.34L13.32 10.34L13.32 10.34Q13.38 10.55 13.43 10.73L13.43 10.73L13.43 10.73Q13.47 10.90 13.50 11.05L13.50 11.05L13.50 11.05Q13.53 11.20 13.54 11.34L13.54 11.34L13.54 11.34Q13.56 11.20 13.60 11.02L13.60 11.02L13.60 11.02Q13.64 10.85 13.69 10.69L13.69 10.69L13.69 10.69Q13.73 10.53 13.78 10.40L13.78 10.40L13.78 10.40Q13.83 10.27 13.85 10.22L13.85 10.22L14.77 7.48L14.77 7.48Q14.80 7.41 14.82 7.32L14.82 7.32L14.82 7.32Q14.85 7.23 14.87 7.13L14.87 7.13L14.87 7.13Q14.89 7.03 14.90 6.95L14.90 6.95L14.90 6.95Q14.91 6.86 14.91 6.79L14.91 6.79L14.91 6.79Q14.91 6.47 14.64 6.35L14.64 6.35L14.64 6.35Q14.38 6.23 13.89 6.23L13.89 6.23L13.89 5.49ZM26.36 3.86L26.36 11.34L26.36 11.34Q26.36 11.64 26.41 11.82L26.41 11.82L26.41 11.82Q26.47 12.00 26.57 12.09L26.57 12.09L26.57 12.09Q26.67 12.19 26.80 12.22L26.80 12.22L26.80 12.22Q26.93 12.25 27.08 12.25L27.08 12.25L27.67 12.25L27.67 13.00L22.83 13.00L22.83 12.25L23.42 12.25L23.42 12.25Q23.58 12.25 23.71 12.22L23.71 12.22L23.71 12.22Q23.84 12.19 23.93 12.09L23.93 12.09L23.93 12.09Q24.03 12.00 24.08 11.82L24.08 11.82L24.08 11.82Q24.14 11.64 24.14 11.34L24.14 11.34L24.14 3.86L23.02 3.86L23.02 3.86Q22.70 3.86 22.49 3.92L22.49 3.92L22.49 3.92Q22.28 3.99 22.15 4.12L22.15 4.12L22.15 4.12Q22.01 4.25 21.95 4.43L21.95 4.43L21.95 4.43Q21.88 4.61 21.85 4.85L21.85 4.85L21.76 5.71L20.82 5.71L20.89 3.00L29.61 3.00L29.68 5.71L28.75 5.71L28.64 4.85L28.64 4.85Q28.62 4.61 28.55 4.43L28.55 4.43L28.55 4.43Q28.49 4.25 28.35 4.12L28.35 4.12L28.35 4.12Q28.22 3.99 28.01 3.92L28.01 3.92L28.01 3.92Q27.79 3.86 27.48 3.86L27.48 3.86L26.36 3.86ZM37.32 9.21L37.32 9.21L37.32 9.21Q37.32 11.19 36.40 12.16L36.40 12.16L36.40 12.16Q35.47 13.13 33.67 13.13L33.67 13.13L33.67 13.13Q32.83 13.13 32.16 12.89L32.16 12.89L32.16 12.89Q31.49 12.65 31.02 12.16L31.02 12.16L31.02 12.16Q30.56 11.68 30.31 10.94L30.31 10.94L30.31 10.94Q30.06 10.20 30.06 9.21L30.06 9.21L30.06 9.21Q30.06 7.24 30.98 6.28L30.98 6.28L30.98 6.28Q31.91 5.31 33.71 5.31L33.71 5.31L33.71 5.31Q34.56 5.31 35.22 5.55L35.22 5.55L35.22 5.55Q35.89 5.79 36.36 6.28L36.36 6.28L36.36 6.28Q36.83 6.76 37.07 7.50L37.07 7.50L37.07 7.50Q37.32 8.23 37.32 9.21ZM32.23 9.21L32.23 9.21L32.23 9.21Q32.23 9.96 32.31 10.53L32.31 10.53L32.31 10.53Q32.39 11.09 32.56 11.48L32.56 11.48L32.56 11.48Q32.74 11.86 33.02 12.06L33.02 12.06L33.02 12.06Q33.30 12.25 33.70 12.25L33.70 12.25L33.70 12.25Q34.10 12.25 34.38 12.06L34.38 12.06L34.38 12.06Q34.66 11.86 34.83 11.48L34.83 11.48L34.83 11.48Q35.01 11.09 35.08 10.53L35.08 10.53L35.08 10.53Q35.16 9.96 35.16 9.21L35.16 9.21L35.16 9.21Q35.16 8.46 35.08 7.90L35.08 7.90L35.08 7.90Q35 7.33 34.83 6.96L34.83 6.96L34.83 6.96Q34.65 6.58 34.37 6.40L34.37 6.40L34.37 6.40Q34.09 6.21 33.69 6.21L33.69 6.21L33.69 6.21Q33.28 6.21 33.00 6.40L33.00 6.40L33.00 6.40Q32.72 6.58 32.55 6.96L32.55 6.96L32.55 6.96Q32.38 7.33 32.31 7.90L32.31 7.90L32.31 7.90Q32.23 8.46 32.23 9.21ZM45.90 9.21L45.90 9.21L45.90 9.21Q45.90 11.19 44.98 12.16L44.98 12.16L44.98 12.16Q44.05 13.13 42.25 13.13L42.25 13.13L42.25 13.13Q41.41 13.13 40.74 12.89L40.74 12.89L40.74 12.89Q40.07 12.65 39.60 12.16L39.60 12.16L39.60 12.16Q39.14 11.68 38.89 10.94L38.89 10.94L38.89 10.94Q38.64 10.20 38.64 9.21L38.64 9.21L38.64 9.21Q38.64 7.24 39.56 6.28L39.56 6.28L39.56 6.28Q40.49 5.31 42.29 5.31L42.29 5.31L42.29 5.31Q43.13 5.31 43.80 5.55L43.80 5.55L43.80 5.55Q44.47 5.79 44.94 6.28L44.94 6.28L44.94 6.28Q45.40 6.76 45.65 7.50L45.65 7.50L45.65 7.50Q45.90 8.23 45.90 9.21ZM40.81 9.21L40.81 9.21L40.81 9.21Q40.81 9.96 40.89 10.53L40.89 10.53L40.89 10.53Q40.97 11.09 41.14 11.48L41.14 11.48L41.14 11.48Q41.32 11.86 41.60 12.06L41.60 12.06L41.60 12.06Q41.88 12.25 42.28 12.25L42.28 12.25L42.28 12.25Q42.68 12.25 42.96 12.06L42.96 12.06L42.96 12.06Q43.24 11.86 43.41 11.48L43.41 11.48L43.41 11.48Q43.59 11.09 43.66 10.53L43.66 10.53L43.66 10.53Q43.74 9.96 43.74 9.21L43.74 9.21L43.74 9.21Q43.74 8.46 43.66 7.90L43.66 7.90L43.66 7.90Q43.58 7.33 43.40 6.96L43.40 6.96L43.40 6.96Q43.23 6.58 42.95 6.40L42.95 6.40L42.95 6.40Q42.67 6.21 42.27 6.21L42.27 6.21L42.27 6.21Q41.86 6.21 41.58 6.40L41.58 6.40L41.58 6.40Q41.30 6.58 41.13 6.96L41.13 6.96L41.13 6.96Q40.96 7.33 40.89 7.90L40.89 7.90L40.89 7.90Q40.81 8.46 40.81 9.21ZM46.80 12.25L46.96 12.25L46.96 12.25Q47.12 12.25 47.29 12.22L47.29 12.22L47.29 12.22Q47.47 12.19 47.62 12.09L47.62 12.09L47.62 12.09Q47.76 12.00 47.86 11.82L47.86 11.82L47.86 11.82Q47.96 11.64 47.96 11.34L47.96 11.34L47.96 3.95L47.96 3.95Q47.96 3.67 47.86 3.50L47.86 3.50L47.86 3.50Q47.76 3.34 47.61 3.24L47.61 3.24L47.61 3.24Q47.46 3.15 47.29 3.12L47.29 3.12L47.29 3.12Q47.11 3.10 46.96 3.10L46.96 3.10L46.80 3.10L46.80 2.36L50.09 2.36L50.09 11.34L50.09 11.34Q50.09 11.64 50.19 11.82L50.19 11.82L50.19 11.82Q50.29 12.00 50.43 12.09L50.43 12.09L50.43 12.09Q50.58 12.19 50.76 12.22L50.76 12.22L50.76 12.22Q50.93 12.25 51.08 12.25L51.08 12.25L51.25 12.25L51.25 13.00L46.80 13.00L46.80 12.25ZM54.72 13.13L54.72 13.13L54.72 13.13Q53.96 13.13 53.43 13.01L53.43 13.01L53.43 13.01Q52.89 12.89 52.55 12.67L52.55 12.67L52.55 12.67Q52.21 12.45 52.06 12.15L52.06 12.15L52.06 12.15Q51.91 11.85 51.91 11.50L51.91 11.50L51.91 11.50Q51.91 11.16 52.04 10.95L52.04 10.95L52.04 10.95Q52.17 10.74 52.37 10.62L52.37 10.62L52.37 10.62Q52.58 10.51 52.80 10.47L52.80 10.47L52.80 10.47Q53.03 10.43 53.21 10.43L53.21 10.43L53.21 10.43Q53.21 10.87 53.32 11.22L53.32 11.22L53.32 11.22Q53.43 11.57 53.63 11.81L53.63 11.81L53.63 11.81Q53.83 12.05 54.10 12.18L54.10 12.18L54.10 12.18Q54.38 12.31 54.72 12.31L54.72 12.31L54.72 12.31Q55.08 12.31 55.35 12.24L55.35 12.24L55.35 12.24Q55.61 12.16 55.78 12.03L55.78 12.03L55.78 12.03Q55.95 11.89 56.03 11.72L56.03 11.72L56.03 11.72Q56.11 11.55 56.11 11.35L56.11 11.35L56.11 11.35Q56.11 11.12 56.02 10.94L56.02 10.94L56.02 10.94Q55.94 10.76 55.74 10.60L55.74 10.60L55.74 10.60Q55.54 10.44 55.21 10.28L55.21 10.28L55.21 10.28Q54.88 10.13 54.39 9.96L54.39 9.96L54.39 9.96Q53.82 9.76 53.39 9.54L53.39 9.54L53.39 9.54Q52.95 9.32 52.65 9.03L52.65 9.03L52.65 9.03Q52.36 8.75 52.20 8.38L52.20 8.38L52.20 8.38Q52.05 8.02 52.05 7.55L52.05 7.55L52.05 7.55Q52.05 6.99 52.26 6.57L52.26 6.57L52.26 6.57Q52.48 6.15 52.88 5.88L52.88 5.88L52.88 5.88Q53.27 5.60 53.83 5.46L53.83 5.46L53.83 5.46Q54.38 5.33 55.06 5.33L55.06 5.33L55.06 5.33Q55.72 5.33 56.18 5.44L56.18 5.44L56.18 5.44Q56.65 5.55 56.94 5.74L56.94 5.74L56.94 5.74Q57.24 5.92 57.37 6.15L57.37 6.15L57.37 6.15Q57.51 6.38 57.51 6.62L57.51 6.62L57.51 6.62Q57.51 7.10 57.18 7.34L57.18 7.34L57.18 7.34Q56.85 7.59 56.08 7.59L56.08 7.59L56.08 7.59Q56.08 6.89 55.77 6.50L55.77 6.50L55.77 6.50Q55.46 6.12 54.85 6.12L54.85 6.12L54.85 6.12Q54.63 6.12 54.42 6.17L54.42 6.17L54.42 6.17Q54.21 6.23 54.06 6.34L54.06 6.34L54.06 6.34Q53.90 6.45 53.81 6.61L53.81 6.61L53.81 6.61Q53.72 6.77 53.72 6.99L53.72 6.99L53.72 6.99Q53.72 7.21 53.80 7.39L53.80 7.39L53.80 7.39Q53.89 7.57 54.10 7.73L54.10 7.73L54.10 7.73Q54.32 7.89 54.69 8.05L54.69 8.05L54.69 8.05Q55.06 8.22 55.63 8.42L55.63 8.42L55.63 8.42Q56.10 8.58 56.49 8.79L56.49 8.79L56.49 8.79Q56.88 9.00 57.17 9.27L57.17 9.27L57.17 9.27Q57.45 9.54 57.61 9.88L57.61 9.88L57.61 9.88Q57.76 10.23 57.76 10.67L57.76 10.67L57.76 10.67Q57.76 11.25 57.56 11.71L57.56 11.71L57.56 11.71Q57.36 12.17 56.97 12.48L56.97 12.48L56.97 12.48Q56.58 12.80 56.01 12.96L56.01 12.96L56.01 12.96Q55.45 13.13 54.72 13.13Z"></path></g><!----><!----></svg>