<svg data-v-423bf9ae="" xmlns="http://www.w3.org/2000/svg" viewBox="0 0 330.5724209126009 60" class="font"><!----><!----><!----><g data-v-423bf9ae="" id="a3173422-0b1d-4015-bb67-b2407ed197f7" fill="black" transform="matrix(4.240282514041758,0,0,4.240282514041758,-1.6537071554979264,-9.371024040949067)"><path d="M3.92 8.20L3.92 12.14L6.72 12.14L6.72 12.14Q6.93 12.14 7.08 12.06L7.08 12.06L7.08 12.06Q7.23 11.98 7.34 11.84L7.34 11.84L7.34 11.84Q7.45 11.70 7.52 11.50L7.52 11.50L7.52 11.50Q7.58 11.31 7.62 11.07L7.62 11.07L7.72 10.42L8.70 10.42L8.59 13.00L0.39 13.00L0.39 12.25L0.98 12.25L0.98 12.25Q1.13 12.25 1.26 12.22L1.26 12.22L1.26 12.22Q1.39 12.20 1.49 12.11L1.49 12.11L1.49 12.11Q1.59 12.02 1.64 11.86L1.64 11.86L1.64 11.86Q1.70 11.69 1.70 11.42L1.70 11.42L1.70 4.65L1.70 4.65Q1.70 4.35 1.64 4.17L1.64 4.17L1.64 4.17Q1.59 3.99 1.49 3.90L1.49 3.90L1.49 3.90Q1.39 3.80 1.26 3.77L1.26 3.77L1.26 3.77Q1.13 3.74 0.98 3.74L0.98 3.74L0.39 3.74L0.39 3.00L8.16 3.00L8.22 5.58L7.24 5.58L7.17 4.92L7.17 4.92Q7.12 4.40 6.91 4.13L6.91 4.13L6.91 4.13Q6.71 3.86 6.28 3.86L6.28 3.86L3.92 3.86L3.92 7.36L7.24 7.36L7.24 8.20L3.92 8.20ZM11.94 10.91L11.94 10.91L11.94 10.91Q11.94 11.51 12.13 11.81L12.13 11.81L12.13 11.81Q12.33 12.11 12.74 12.11L12.74 12.11L12.74 12.11Q13.04 12.11 13.28 11.99L13.28 11.99L13.28 11.99Q13.52 11.86 13.70 11.63L13.70 11.63L13.70 11.63Q13.87 11.40 13.96 11.06L13.96 11.06L13.96 11.06Q14.05 10.73 14.05 10.32L14.05 10.32L14.05 9.27L13.43 9.31L13.43 9.31Q13.01 9.33 12.72 9.44L12.72 9.44L12.72 9.44Q12.43 9.56 12.26 9.75L12.26 9.75L12.26 9.75Q12.09 9.95 12.02 10.24L12.02 10.24L12.02 10.24Q11.94 10.53 11.94 10.91ZM13.19 6.17L13.19 6.17L13.19 6.17Q12.92 6.17 12.74 6.28L12.74 6.28L12.74 6.28Q12.56 6.39 12.45 6.59L12.45 6.59L12.45 6.59Q12.34 6.79 12.29 7.07L12.29 7.07L12.29 7.07Q12.25 7.35 12.25 7.68L12.25 7.68L12.25 7.68Q11.31 7.68 10.83 7.46L10.83 7.46L10.83 7.46Q10.36 7.25 10.36 6.74L10.36 6.74L10.36 6.74Q10.36 6.36 10.59 6.08L10.59 6.08L10.59 6.08Q10.81 5.81 11.21 5.64L11.21 5.64L11.21 5.64Q11.60 5.47 12.12 5.39L12.12 5.39L12.12 5.39Q12.65 5.31 13.24 5.31L13.24 5.31L13.24 5.31Q13.98 5.31 14.53 5.44L14.53 5.44L14.53 5.44Q15.08 5.56 15.45 5.84L15.45 5.84L15.45 5.84Q15.81 6.13 16.00 6.58L16.00 6.58L16.00 6.58Q16.18 7.03 16.18 7.69L16.18 7.69L16.18 11.26L16.18 11.26Q16.18 11.55 16.23 11.74L16.23 11.74L16.23 11.74Q16.27 11.93 16.37 12.04L16.37 12.04L16.37 12.04Q16.46 12.15 16.63 12.20L16.63 12.20L16.63 12.20Q16.79 12.25 17.02 12.25L17.02 12.25L17.08 12.25L17.08 13.00L14.47 13.00L14.18 12.03L14.05 12.03L14.05 12.03Q13.82 12.31 13.62 12.52L13.62 12.52L13.62 12.52Q13.41 12.73 13.18 12.87L13.18 12.87L13.18 12.87Q12.95 13.00 12.66 13.07L12.66 13.07L12.66 13.07Q12.37 13.13 11.97 13.13L11.97 13.13L11.97 13.13Q11.50 13.13 11.10 13.00L11.10 13.00L11.10 13.00Q10.71 12.86 10.41 12.57L10.41 12.57L10.41 12.57Q10.11 12.29 9.94 11.86L9.94 11.86L9.94 11.86Q9.77 11.44 9.77 10.86L9.77 10.86L9.77 10.86Q9.77 9.71 10.55 9.17L10.55 9.17L10.55 9.17Q11.33 8.62 12.91 8.57L12.91 8.57L14.05 8.53L14.05 7.76L14.05 7.76Q14.05 7.41 14.03 7.12L14.03 7.12L14.03 7.12Q14 6.82 13.91 6.61L13.91 6.61L13.91 6.61Q13.82 6.40 13.65 6.28L13.65 6.28L13.65 6.28Q13.47 6.17 13.19 6.17ZM20.76 13.13L20.76 13.13L20.76 13.13Q20.00 13.13 19.47 13.01L19.47 13.01L19.47 13.01Q18.93 12.89 18.59 12.67L18.59 12.67L18.59 12.67Q18.25 12.45 18.10 12.15L18.10 12.15L18.10 12.15Q17.94 11.85 17.94 11.50L17.94 11.50L17.94 11.50Q17.94 11.16 18.08 10.95L18.08 10.95L18.08 10.95Q18.21 10.74 18.41 10.62L18.41 10.62L18.41 10.62Q18.61 10.51 18.84 10.47L18.84 10.47L18.84 10.47Q19.07 10.43 19.25 10.43L19.25 10.43L19.25 10.43Q19.25 10.87 19.36 11.22L19.36 11.22L19.36 11.22Q19.47 11.57 19.67 11.81L19.67 11.81L19.67 11.81Q19.87 12.05 20.14 12.18L20.14 12.18L20.14 12.18Q20.42 12.31 20.76 12.31L20.76 12.31L20.76 12.31Q21.12 12.31 21.39 12.24L21.39 12.24L21.39 12.24Q21.65 12.16 21.82 12.03L21.82 12.03L21.82 12.03Q21.98 11.89 22.07 11.72L22.07 11.72L22.07 11.72Q22.15 11.55 22.15 11.35L22.15 11.35L22.15 11.35Q22.15 11.12 22.06 10.94L22.06 10.94L22.06 10.94Q21.98 10.76 21.78 10.60L21.78 10.60L21.78 10.60Q21.58 10.44 21.25 10.28L21.25 10.28L21.25 10.28Q20.92 10.13 20.43 9.96L20.43 9.96L20.43 9.96Q19.86 9.76 19.42 9.54L19.42 9.54L19.42 9.54Q18.99 9.32 18.69 9.03L18.69 9.03L18.69 9.03Q18.40 8.75 18.24 8.38L18.24 8.38L18.24 8.38Q18.09 8.02 18.09 7.55L18.09 7.55L18.09 7.55Q18.09 6.99 18.30 6.57L18.30 6.57L18.30 6.57Q18.52 6.15 18.92 5.88L18.92 5.88L18.92 5.88Q19.31 5.60 19.87 5.46L19.87 5.46L19.87 5.46Q20.42 5.33 21.10 5.33L21.10 5.33L21.10 5.33Q21.76 5.33 22.22 5.44L22.22 5.44L22.22 5.44Q22.69 5.55 22.98 5.74L22.98 5.74L22.98 5.74Q23.28 5.92 23.41 6.15L23.41 6.15L23.41 6.15Q23.55 6.38 23.55 6.62L23.55 6.62L23.55 6.62Q23.55 7.10 23.22 7.34L23.22 7.34L23.22 7.34Q22.89 7.59 22.12 7.59L22.12 7.59L22.12 7.59Q22.12 6.89 21.81 6.50L21.81 6.50L21.81 6.50Q21.50 6.12 20.89 6.12L20.89 6.12L20.89 6.12Q20.67 6.12 20.46 6.17L20.46 6.17L20.46 6.17Q20.25 6.23 20.09 6.34L20.09 6.34L20.09 6.34Q19.94 6.45 19.85 6.61L19.85 6.61L19.85 6.61Q19.76 6.77 19.76 6.99L19.76 6.99L19.76 6.99Q19.76 7.21 19.84 7.39L19.84 7.39L19.84 7.39Q19.93 7.57 20.14 7.73L20.14 7.73L20.14 7.73Q20.36 7.89 20.73 8.05L20.73 8.05L20.73 8.05Q21.10 8.22 21.67 8.42L21.67 8.42L21.67 8.42Q22.13 8.58 22.53 8.79L22.53 8.79L22.53 8.79Q22.92 9.00 23.20 9.27L23.20 9.27L23.20 9.27Q23.49 9.54 23.65 9.88L23.65 9.88L23.65 9.88Q23.80 10.23 23.80 10.67L23.80 10.67L23.80 10.67Q23.80 11.25 23.60 11.71L23.60 11.71L23.60 11.71Q23.40 12.17 23.01 12.48L23.01 12.48L23.01 12.48Q22.62 12.80 22.05 12.96L22.05 12.96L22.05 12.96Q21.49 13.13 20.76 13.13ZM29.31 5.49L32.46 5.49L32.46 6.23L32.46 6.23Q32.25 6.23 32.09 6.28L32.09 6.28L32.09 6.28Q31.93 6.33 31.80 6.45L31.80 6.45L31.80 6.45Q31.67 6.57 31.56 6.76L31.56 6.76L31.56 6.76Q31.45 6.96 31.34 7.25L31.34 7.25L31.34 7.25Q31.10 7.95 30.83 8.67L30.83 8.67L30.83 8.67Q30.56 9.40 30.29 10.13L30.29 10.13L30.29 10.13Q30.02 10.86 29.75 11.58L29.75 11.58L29.75 11.58Q29.48 12.30 29.23 13.00L29.23 13.00L29.23 13.00Q28.98 13.67 28.77 14.18L28.77 14.18L28.77 14.18Q28.55 14.70 28.30 15.07L28.30 15.07L28.30 15.07Q28.06 15.45 27.77 15.70L27.77 15.70L27.77 15.70Q27.47 15.94 27.08 16.09L27.08 16.09L27.08 16.09Q26.69 16.24 26.18 16.30L26.18 16.30L26.18 16.30Q25.66 16.36 24.97 16.36L24.97 16.36L24.73 16.36L24.73 15.54L24.73 15.54Q25.46 15.54 25.98 15.37L25.98 15.37L25.98 15.37Q26.49 15.19 26.84 14.86L26.84 14.86L26.84 14.86Q27.20 14.53 27.43 14.08L27.43 14.08L27.43 14.08Q27.66 13.62 27.83 13.06L27.83 13.06L25.31 6.90L25.31 6.90Q25.22 6.71 25.12 6.59L25.12 6.59L25.12 6.59Q25.02 6.47 24.90 6.41L24.90 6.41L24.90 6.41Q24.79 6.35 24.65 6.33L24.65 6.33L24.65 6.33Q24.51 6.32 24.36 6.32L24.36 6.32L24.36 5.49L28.35 5.49L28.35 6.23L28.35 6.23Q27.94 6.23 27.70 6.34L27.70 6.34L27.70 6.34Q27.47 6.45 27.47 6.75L27.47 6.75L27.47 6.75Q27.47 6.87 27.51 7.03L27.51 7.03L27.51 7.03Q27.56 7.19 27.60 7.29L27.60 7.29L27.60 7.29Q27.73 7.59 27.86 7.93L27.86 7.93L27.86 7.93Q27.99 8.28 28.12 8.62L28.12 8.62L28.12 8.62Q28.25 8.97 28.36 9.29L28.36 9.29L28.36 9.29Q28.48 9.61 28.57 9.86L28.57 9.86L28.57 9.86Q28.67 10.12 28.74 10.34L28.74 10.34L28.74 10.34Q28.81 10.55 28.85 10.73L28.85 10.73L28.85 10.73Q28.90 10.90 28.92 11.05L28.92 11.05L28.92 11.05Q28.95 11.20 28.96 11.34L28.96 11.34L28.96 11.34Q28.98 11.20 29.02 11.02L29.02 11.02L29.02 11.02Q29.06 10.85 29.11 10.69L29.11 10.69L29.11 10.69Q29.16 10.53 29.20 10.40L29.20 10.40L29.20 10.40Q29.25 10.27 29.27 10.22L29.27 10.22L30.19 7.48L30.19 7.48Q30.22 7.41 30.25 7.32L30.25 7.32L30.25 7.32Q30.27 7.23 30.29 7.13L30.29 7.13L30.29 7.13Q30.31 7.03 30.32 6.95L30.32 6.95L30.32 6.95Q30.33 6.86 30.33 6.79L30.33 6.79L30.33 6.79Q30.33 6.47 30.06 6.35L30.06 6.35L30.06 6.35Q29.80 6.23 29.31 6.23L29.31 6.23L29.31 5.49ZM39.80 13.13L39.80 13.13L39.80 13.13Q38.86 13.13 38.23 12.95L38.23 12.95L38.23 12.95Q37.60 12.78 37.22 12.50L37.22 12.50L37.22 12.50Q36.84 12.22 36.68 11.87L36.68 11.87L36.68 11.87Q36.52 11.52 36.52 11.18L36.52 11.18L36.52 11.18Q36.52 10.81 36.65 10.57L36.65 10.57L36.65 10.57Q36.78 10.32 37.01 10.17L37.01 10.17L37.01 10.17Q37.23 10.01 37.51 9.94L37.51 9.94L37.51 9.94Q37.80 9.87 38.10 9.87L38.10 9.87L38.10 9.87Q38.10 10.47 38.25 10.93L38.25 10.93L38.25 10.93Q38.39 11.38 38.64 11.69L38.64 11.69L38.64 11.69Q38.90 11.99 39.25 12.14L39.25 12.14L39.25 12.14Q39.60 12.30 40.02 12.30L40.02 12.30L40.02 12.30Q40.43 12.30 40.75 12.18L40.75 12.18L40.75 12.18Q41.07 12.07 41.30 11.86L41.30 11.86L41.30 11.86Q41.52 11.66 41.64 11.38L41.64 11.38L41.64 11.38Q41.75 11.10 41.75 10.78L41.75 10.78L41.75 10.78Q41.75 10.42 41.61 10.15L41.61 10.15L41.61 10.15Q41.47 9.87 41.18 9.64L41.18 9.64L41.18 9.64Q40.89 9.40 40.44 9.18L40.44 9.18L40.44 9.18Q40.00 8.97 39.42 8.72L39.42 8.72L39.42 8.72Q38.68 8.42 38.18 8.10L38.18 8.10L38.18 8.10Q37.68 7.79 37.37 7.42L37.37 7.42L37.37 7.42Q37.06 7.05 36.93 6.62L36.93 6.62L36.93 6.62Q36.80 6.19 36.80 5.67L36.80 5.67L36.80 5.67Q36.80 5.03 37.06 4.51L37.06 4.51L37.06 4.51Q37.32 3.99 37.78 3.62L37.78 3.62L37.78 3.62Q38.23 3.25 38.86 3.06L38.86 3.06L38.86 3.06Q39.49 2.86 40.23 2.86L40.23 2.86L40.23 2.86Q41.00 2.86 41.56 2.98L41.56 2.98L41.56 2.98Q42.12 3.11 42.49 3.33L42.49 3.33L42.49 3.33Q42.85 3.55 43.03 3.85L43.03 3.85L43.03 3.85Q43.21 4.14 43.21 4.48L43.21 4.48L43.21 4.48Q43.21 4.73 43.10 4.94L43.10 4.94L43.10 4.94Q43.00 5.15 42.78 5.31L42.78 5.31L42.78 5.31Q42.57 5.47 42.24 5.56L42.24 5.56L42.24 5.56Q41.92 5.65 41.49 5.65L41.49 5.65L41.49 5.65Q41.49 5.35 41.41 5.01L41.41 5.01L41.41 5.01Q41.33 4.68 41.15 4.39L41.15 4.39L41.15 4.39Q40.97 4.09 40.69 3.90L40.69 3.90L40.69 3.90Q40.41 3.71 40.00 3.71L40.00 3.71L40.00 3.71Q39.72 3.71 39.47 3.79L39.47 3.79L39.47 3.79Q39.22 3.88 39.03 4.04L39.03 4.04L39.03 4.04Q38.84 4.20 38.73 4.45L38.73 4.45L38.73 4.45Q38.62 4.69 38.62 5.00L38.62 5.00L38.62 5.00Q38.62 5.30 38.72 5.56L38.72 5.56L38.72 5.56Q38.81 5.82 39.07 6.07L39.07 6.07L39.07 6.07Q39.33 6.32 39.77 6.57L39.77 6.57L39.77 6.57Q40.22 6.82 40.93 7.10L40.93 7.10L40.93 7.10Q41.65 7.40 42.16 7.70L42.16 7.70L42.16 7.70Q42.66 8.01 42.99 8.36L42.99 8.36L42.99 8.36Q43.31 8.72 43.46 9.14L43.46 9.14L43.46 9.14Q43.61 9.56 43.61 10.07L43.61 10.07L43.61 10.07Q43.61 10.75 43.34 11.31L43.34 11.31L43.34 11.31Q43.07 11.87 42.57 12.28L42.57 12.28L42.57 12.28Q42.08 12.68 41.37 12.91L41.37 12.91L41.37 12.91Q40.67 13.13 39.80 13.13ZM48.43 13.13L48.43 13.13L48.43 13.13Q47.66 13.13 47.02 12.93L47.02 12.93L47.02 12.93Q46.38 12.74 45.92 12.28L45.92 12.28L45.92 12.28Q45.47 11.82 45.21 11.08L45.21 11.08L45.21 11.08Q44.96 10.34 44.96 9.27L44.96 9.27L44.96 9.27Q44.96 8.13 45.22 7.38L45.22 7.38L45.22 7.38Q45.49 6.62 45.95 6.16L45.95 6.16L45.95 6.16Q46.41 5.70 47.04 5.51L47.04 5.51L47.04 5.51Q47.67 5.31 48.39 5.31L48.39 5.31L48.39 5.31Q49.07 5.31 49.59 5.42L49.59 5.42L49.59 5.42Q50.11 5.54 50.46 5.74L50.46 5.74L50.46 5.74Q50.80 5.93 50.99 6.20L50.99 6.20L50.99 6.20Q51.17 6.47 51.17 6.78L51.17 6.78L51.17 6.78Q51.17 7.01 51.09 7.22L51.09 7.22L51.09 7.22Q51.01 7.44 50.81 7.60L50.81 7.60L50.81 7.60Q50.61 7.77 50.25 7.87L50.25 7.87L50.25 7.87Q49.90 7.97 49.36 7.97L49.36 7.97L49.36 7.97Q49.36 7.61 49.31 7.28L49.31 7.28L49.31 7.28Q49.27 6.95 49.16 6.71L49.16 6.71L49.16 6.71Q49.06 6.46 48.89 6.31L48.89 6.31L48.89 6.31Q48.71 6.17 48.45 6.17L48.45 6.17L48.45 6.17Q48.14 6.17 47.90 6.31L47.90 6.31L47.90 6.31Q47.65 6.46 47.48 6.82L47.48 6.82L47.48 6.82Q47.30 7.17 47.21 7.77L47.21 7.77L47.21 7.77Q47.12 8.36 47.12 9.26L47.12 9.26L47.12 9.26Q47.12 10.68 47.51 11.38L47.51 11.38L47.51 11.38Q47.90 12.09 48.78 12.09L48.78 12.09L48.78 12.09Q49.14 12.09 49.46 12.00L49.46 12.00L49.46 12.00Q49.78 11.92 50.04 11.76L50.04 11.76L50.04 11.76Q50.30 11.61 50.49 11.40L50.49 11.40L50.49 11.40Q50.69 11.19 50.81 10.95L50.81 10.95L50.81 10.95Q50.98 11.05 51.06 11.23L51.06 11.23L51.06 11.23Q51.15 11.40 51.15 11.59L51.15 11.59L51.15 11.59Q51.15 11.86 50.99 12.13L50.99 12.13L50.99 12.13Q50.83 12.41 50.50 12.63L50.50 12.63L50.50 12.63Q50.17 12.85 49.66 12.99L49.66 12.99L49.66 12.99Q49.14 13.13 48.43 13.13ZM56.64 12.25L56.64 13.00L51.96 13.00L51.96 12.25L52.00 12.25L52.00 12.25Q52.24 12.25 52.44 12.22L52.44 12.22L52.44 12.22Q52.64 12.18 52.78 12.08L52.78 12.08L52.78 12.08Q52.92 11.97 53.00 11.77L53.00 11.77L53.00 11.77Q53.08 11.57 53.08 11.25L53.08 11.25L53.08 7.18L53.08 7.18Q53.08 6.88 53.01 6.69L53.01 6.69L53.01 6.69Q52.94 6.50 52.80 6.40L52.80 6.40L52.80 6.40Q52.67 6.30 52.49 6.27L52.49 6.27L52.49 6.27Q52.30 6.23 52.07 6.23L52.07 6.23L52.03 6.23L52.03 5.49L54.86 5.49L55.14 6.58L55.21 6.58L55.21 6.58Q55.34 6.27 55.51 6.03L55.51 6.03L55.51 6.03Q55.67 5.80 55.90 5.64L55.90 5.64L55.90 5.64Q56.13 5.48 56.44 5.40L56.44 5.40L56.44 5.40Q56.75 5.33 57.18 5.33L57.18 5.33L57.18 5.33Q58.01 5.33 58.40 5.62L58.40 5.62L58.40 5.62Q58.79 5.91 58.79 6.46L58.79 6.46L58.79 6.46Q58.79 7.10 58.32 7.46L58.32 7.46L58.32 7.46Q57.86 7.81 57.01 7.81L57.01 7.81L57.01 7.81Q57.01 7.53 56.98 7.31L56.98 7.31L56.98 7.31Q56.95 7.09 56.87 6.95L56.87 6.95L56.87 6.95Q56.79 6.80 56.66 6.73L56.66 6.73L56.66 6.73Q56.53 6.65 56.33 6.65L56.33 6.65L56.33 6.65Q56.08 6.65 55.90 6.77L55.90 6.77L55.90 6.77Q55.73 6.90 55.60 7.09L55.60 7.09L55.60 7.09Q55.48 7.29 55.40 7.53L55.40 7.53L55.40 7.53Q55.32 7.78 55.28 8.03L55.28 8.03L55.28 8.03Q55.23 8.28 55.22 8.50L55.22 8.50L55.22 8.50Q55.21 8.73 55.21 8.89L55.21 8.89L55.21 11.31L55.21 11.31Q55.21 11.62 55.28 11.81L55.28 11.81L55.28 11.81Q55.36 12.00 55.49 12.09L55.49 12.09L55.49 12.09Q55.62 12.19 55.80 12.22L55.80 12.22L55.80 12.22Q55.98 12.25 56.18 12.25L56.18 12.25L56.64 12.25ZM60.20 3.22L60.20 3.22L60.20 3.22Q60.20 2.95 60.30 2.76L60.30 2.76L60.30 2.76Q60.39 2.57 60.55 2.45L60.55 2.45L60.55 2.45Q60.71 2.33 60.93 2.27L60.93 2.27L60.93 2.27Q61.14 2.21 61.39 2.21L61.39 2.21L61.39 2.21Q61.63 2.21 61.85 2.27L61.85 2.27L61.85 2.27Q62.07 2.33 62.23 2.45L62.23 2.45L62.23 2.45Q62.40 2.57 62.50 2.76L62.50 2.76L62.50 2.76Q62.60 2.95 62.60 3.22L62.60 3.22L62.60 3.22Q62.60 3.48 62.50 3.67L62.50 3.67L62.50 3.67Q62.40 3.86 62.23 3.99L62.23 3.99L62.23 3.99Q62.07 4.11 61.85 4.17L61.85 4.17L61.85 4.17Q61.63 4.23 61.39 4.23L61.39 4.23L61.39 4.23Q61.14 4.23 60.93 4.17L60.93 4.17L60.93 4.17Q60.71 4.11 60.55 3.99L60.55 3.99L60.55 3.99Q60.39 3.86 60.30 3.67L60.30 3.67L60.30 3.67Q60.20 3.48 60.20 3.22ZM59.24 12.25L59.40 12.25L59.40 12.25Q59.56 12.25 59.74 12.22L59.74 12.22L59.74 12.22Q59.91 12.19 60.06 12.09L60.06 12.09L60.06 12.09Q60.20 12.00 60.30 11.82L60.30 11.82L60.30 11.82Q60.40 11.64 60.40 11.34L60.40 11.34L60.40 7.09L60.40 7.09Q60.40 6.81 60.30 6.64L60.30 6.64L60.30 6.64Q60.20 6.47 60.05 6.38L60.05 6.38L60.05 6.38Q59.90 6.29 59.73 6.26L59.73 6.26L59.73 6.26Q59.55 6.23 59.40 6.23L59.40 6.23L59.24 6.23L59.24 5.49L62.53 5.49L62.53 11.34L62.53 11.34Q62.53 11.64 62.63 11.82L62.63 11.82L62.63 11.82Q62.73 12.00 62.87 12.09L62.87 12.09L62.87 12.09Q63.02 12.19 63.20 12.22L63.20 12.22L63.20 12.22Q63.38 12.25 63.53 12.25L63.53 12.25L63.69 12.25L63.69 13.00L59.24 13.00L59.24 12.25ZM64.11 15.61L64.28 15.61L64.28 15.61Q64.44 15.61 64.61 15.58L64.61 15.58L64.61 15.58Q64.78 15.55 64.93 15.46L64.93 15.46L64.93 15.46Q65.08 15.36 65.18 15.18L65.18 15.18L65.18 15.18Q65.28 15.00 65.28 14.70L65.28 14.70L65.28 7.21L65.28 7.21Q65.28 6.89 65.20 6.70L65.20 6.70L65.20 6.70Q65.13 6.51 65.01 6.41L65.01 6.41L65.01 6.41Q64.88 6.30 64.71 6.27L64.71 6.27L64.71 6.27Q64.53 6.23 64.33 6.23L64.33 6.23L64.24 6.23L64.24 5.49L66.98 5.49L67.23 6.58L67.29 6.58L67.29 6.58Q67.44 6.31 67.65 6.08L67.65 6.08L67.65 6.08Q67.85 5.86 68.11 5.69L68.11 5.69L68.11 5.69Q68.37 5.53 68.70 5.44L68.70 5.44L68.70 5.44Q69.03 5.35 69.43 5.35L69.43 5.35L69.43 5.35Q70.13 5.35 70.67 5.58L70.67 5.58L70.67 5.58Q71.20 5.81 71.57 6.29L71.57 6.29L71.57 6.29Q71.93 6.77 72.12 7.51L72.12 7.51L72.12 7.51Q72.30 8.25 72.30 9.27L72.30 9.27L72.30 9.27Q72.30 10.28 72.12 11.02L72.12 11.02L72.12 11.02Q71.93 11.75 71.58 12.23L71.58 12.23L71.58 12.23Q71.22 12.71 70.69 12.94L70.69 12.94L70.69 12.94Q70.17 13.17 69.49 13.17L69.49 13.17L69.49 13.17Q68.69 13.17 68.19 12.86L68.19 12.86L68.19 12.86Q67.69 12.56 67.39 12.04L67.39 12.04L67.29 12.04L67.29 12.04Q67.32 12.37 67.35 12.67L67.35 12.67L67.35 12.67Q67.37 12.93 67.39 13.23L67.39 13.23L67.39 13.23Q67.40 13.52 67.40 13.74L67.40 13.74L67.40 14.70L67.40 14.70Q67.40 15.00 67.50 15.18L67.50 15.18L67.50 15.18Q67.60 15.36 67.75 15.46L67.75 15.46L67.75 15.46Q67.89 15.55 68.07 15.58L68.07 15.58L68.07 15.58Q68.24 15.61 68.39 15.61L68.39 15.61L68.70 15.61L68.70 16.36L64.11 16.36L64.11 15.61ZM68.83 12.13L68.83 12.13L68.83 12.13Q69.54 12.13 69.84 11.42L69.84 11.42L69.84 11.42Q70.14 10.71 70.14 9.28L70.14 9.28L70.14 9.28Q70.14 7.89 69.84 7.14L69.84 7.14L69.84 7.14Q69.54 6.40 68.84 6.40L68.84 6.40L68.84 6.40Q68.43 6.40 68.15 6.59L68.15 6.59L68.15 6.59Q67.87 6.77 67.70 7.14L67.70 7.14L67.70 7.14Q67.54 7.51 67.47 8.04L67.47 8.04L67.47 8.04Q67.40 8.58 67.40 9.27L67.40 9.27L67.40 9.27Q67.40 9.99 67.47 10.53L67.47 10.53L67.47 10.53Q67.54 11.07 67.70 11.42L67.70 11.42L67.70 11.42Q67.87 11.78 68.14 11.95L68.14 11.95L68.14 11.95Q68.41 12.13 68.83 12.13ZM77.36 12.00L77.36 12.00L77.36 12.00Q77.63 12.00 77.88 11.97L77.88 11.97L77.88 11.97Q78.13 11.93 78.35 11.87L78.35 11.87L78.35 12.78L78.35 12.78Q78.24 12.84 78.05 12.90L78.05 12.90L78.05 12.90Q77.86 12.96 77.61 13.01L77.61 13.01L77.61 13.01Q77.36 13.06 77.05 13.10L77.05 13.10L77.05 13.10Q76.73 13.13 76.36 13.13L76.36 13.13L76.36 13.13Q75.89 13.13 75.51 13.02L75.51 13.02L75.51 13.02Q75.13 12.91 74.86 12.64L74.86 12.64L74.86 12.64Q74.59 12.38 74.45 11.96L74.45 11.96L74.45 11.96Q74.31 11.54 74.31 10.92L74.31 10.92L74.31 6.45L73.25 6.45L73.25 5.73L73.25 5.73Q73.71 5.73 74.06 5.55L74.06 5.55L74.06 5.55Q74.42 5.37 74.63 5.14L74.63 5.14L74.63 5.14Q75.06 4.69 75.27 3.75L75.27 3.75L76.43 3.75L76.43 5.49L78.22 5.49L78.22 6.45L76.43 6.45L76.43 10.78L76.43 10.78Q76.43 11.42 76.65 11.71L76.65 11.71L76.65 11.71Q76.86 12.00 77.36 12.00Z"></path></g><!----><!----></svg>